<svg xmlns="http://www.w3.org/2000/svg" xmlns:xlink="http://www.w3.org/1999/xlink" width="1080" zoomAndPan="magnify" viewBox="0 0 810 809.999993" height="1080" preserveAspectRatio="xMidYMid meet" version="1.0"><defs><clipPath id="bd3e733f4e"><path d="M 220 466 L 745.050781 466 L 745.050781 810 L 220 810 Z M 220 466 " clip-rule="nonzero"/></clipPath><clipPath id="2bb77907d9"><path d="M 64.800781 2 L 654 2 L 654 377 L 64.800781 377 Z M 64.800781 2 " clip-rule="nonzero"/></clipPath></defs><g clip-path="url(#bd3e733f4e)"><path fill="#34930c" d="M 745.191406 585.710938 C 745.191406 523.425781 665.570312 487.71875 605.671875 466.273438 L 596.851562 490.914062 C 679.0625 520.339844 719.023438 551.347656 719.023438 585.710938 C 719.023438 622.699219 675.085938 654.636719 580.785156 686.238281 C 527.765625 703.863281 464.148438 719.601562 402.640625 734.804688 C 340.082031 750.285156 275.382812 766.289062 220.9375 784.527344 L 229.230469 809.386719 C 282.683594 791.527344 346.859375 775.667969 408.921875 760.308594 C 470.980469 744.945312 535.042969 729.113281 589.066406 711.148438 C 661.75 686.707031 745.191406 650.4375 745.191406 585.710938 Z M 745.191406 585.710938 " fill-opacity="1" fill-rule="nonzero"/></g><path fill="#34930c" d="M 542.53125 230.855469 L 568.4375 204.953125 L 586.941406 223.457031 L 561.035156 249.363281 Z M 542.53125 230.855469 " fill-opacity="1" fill-rule="nonzero"/><path fill="#34930c" d="M 391.910156 142.65625 L 418.078125 142.65625 L 418.078125 179.292969 L 391.910156 179.292969 Z M 391.910156 142.65625 " fill-opacity="1" fill-rule="nonzero"/><path fill="#34930c" d="M 294.96875 412.328125 C 294.578125 413.765625 294.339844 415.226562 294.246094 416.714844 C 294.15625 418.199219 294.214844 419.679688 294.425781 421.15625 C 294.636719 422.628906 294.992188 424.070312 295.496094 425.46875 C 296 426.871094 296.640625 428.210938 297.414062 429.480469 L 313.117188 455.546875 C 313.5 456.175781 313.914062 456.785156 314.355469 457.375 C 314.796875 457.964844 315.265625 458.53125 315.761719 459.078125 C 316.257812 459.621094 316.78125 460.140625 317.328125 460.636719 C 317.875 461.132812 318.441406 461.597656 319.03125 462.039062 C 319.625 462.480469 320.234375 462.890625 320.867188 463.273438 C 321.496094 463.65625 322.144531 464.003906 322.808594 464.324219 C 323.472656 464.644531 324.152344 464.933594 324.84375 465.1875 C 325.535156 465.441406 326.238281 465.660156 326.949219 465.847656 C 327.664062 466.035156 328.382812 466.1875 329.109375 466.308594 C 329.839844 466.425781 330.570312 466.507812 331.304688 466.554688 C 332.042969 466.605469 332.777344 466.617188 333.515625 466.59375 C 334.25 466.570312 334.984375 466.511719 335.71875 466.421875 C 336.449219 466.328125 337.171875 466.199219 337.890625 466.035156 C 338.613281 465.875 339.320312 465.675781 340.019531 465.445312 C 340.722656 465.214844 341.410156 464.953125 342.082031 464.65625 C 342.757812 464.359375 343.417969 464.03125 344.0625 463.671875 L 348.167969 461.394531 C 353.859375 465.429688 359.914062 468.8125 366.332031 471.546875 L 366.332031 475.222656 C 366.339844 475.964844 366.382812 476.707031 366.464844 477.445312 C 366.546875 478.183594 366.664062 478.914062 366.816406 479.640625 C 366.96875 480.367188 367.15625 481.085938 367.378906 481.792969 C 367.601562 482.5 367.859375 483.195312 368.152344 483.878906 C 368.445312 484.5625 368.765625 485.226562 369.125 485.878906 C 369.480469 486.53125 369.867188 487.164062 370.289062 487.773438 C 370.707031 488.386719 371.152344 488.980469 371.628906 489.546875 C 372.105469 490.117188 372.609375 490.660156 373.140625 491.179688 C 373.671875 491.703125 374.226562 492.195312 374.804688 492.660156 C 375.382812 493.125 375.980469 493.5625 376.601562 493.96875 C 377.222656 494.375 377.863281 494.75 378.519531 495.09375 C 379.179688 495.4375 379.851562 495.746094 380.539062 496.027344 C 381.226562 496.304688 381.929688 496.546875 382.640625 496.757812 C 383.351562 496.964844 384.074219 497.140625 384.804688 497.277344 C 385.53125 497.417969 386.265625 497.519531 387.007812 497.585938 C 387.746094 497.652344 388.484375 497.683594 389.230469 497.675781 L 420.695312 497.675781 C 421.4375 497.683594 422.179688 497.652344 422.917969 497.585938 C 423.660156 497.519531 424.394531 497.417969 425.121094 497.277344 C 425.851562 497.140625 426.570312 496.964844 427.285156 496.757812 C 427.996094 496.546875 428.695312 496.304688 429.386719 496.027344 C 430.074219 495.746094 430.746094 495.4375 431.40625 495.09375 C 432.0625 494.75 432.703125 494.375 433.324219 493.96875 C 433.945312 493.5625 434.542969 493.125 435.121094 492.660156 C 435.699219 492.195312 436.253906 491.703125 436.785156 491.179688 C 437.316406 490.660156 437.816406 490.117188 438.292969 489.546875 C 438.769531 488.980469 439.21875 488.386719 439.636719 487.773438 C 440.054688 487.164062 440.445312 486.53125 440.800781 485.878906 C 441.15625 485.226562 441.480469 484.5625 441.773438 483.878906 C 442.0625 483.195312 442.320312 482.5 442.542969 481.792969 C 442.769531 481.085938 442.957031 480.367188 443.109375 479.640625 C 443.261719 478.914062 443.378906 478.183594 443.460938 477.445312 C 443.542969 476.707031 443.585938 475.964844 443.59375 475.222656 L 443.59375 471.546875 C 450.011719 468.8125 456.0625 465.425781 461.753906 461.394531 L 465.878906 463.671875 C 466.519531 464.03125 467.179688 464.359375 467.851562 464.65625 C 468.527344 464.953125 469.214844 465.21875 469.914062 465.449219 C 470.613281 465.679688 471.324219 465.875 472.042969 466.039062 C 472.761719 466.203125 473.488281 466.332031 474.21875 466.421875 C 474.949219 466.515625 475.683594 466.574219 476.421875 466.597656 C 477.15625 466.621094 477.894531 466.609375 478.628906 466.558594 C 479.363281 466.511719 480.09375 466.429688 480.824219 466.3125 C 481.550781 466.191406 482.269531 466.039062 482.984375 465.851562 C 483.695312 465.664062 484.398438 465.445312 485.089844 465.191406 C 485.78125 464.933594 486.460938 464.648438 487.125 464.328125 C 487.789062 464.007812 488.433594 463.65625 489.066406 463.277344 C 489.695312 462.894531 490.304688 462.484375 490.898438 462.042969 C 491.488281 461.601562 492.058594 461.132812 492.601562 460.636719 C 493.148438 460.144531 493.667969 459.625 494.164062 459.078125 C 494.660156 458.53125 495.128906 457.964844 495.570312 457.375 C 496.011719 456.785156 496.425781 456.175781 496.808594 455.546875 L 512.511719 429.480469 C 513.285156 428.210938 513.925781 426.871094 514.429688 425.46875 C 514.929688 424.070312 515.289062 422.628906 515.5 421.15625 C 515.707031 419.679688 515.769531 418.199219 515.675781 416.714844 C 515.585938 415.226562 515.347656 413.765625 514.957031 412.328125 C 514.558594 410.863281 514.015625 409.457031 513.335938 408.101562 C 512.652344 406.746094 511.84375 405.472656 510.90625 404.28125 C 509.96875 403.085938 508.925781 402 507.769531 401.019531 C 506.613281 400.035156 505.371094 399.179688 504.042969 398.445312 L 500.523438 396.507812 C 501.242188 390.101562 501.242188 383.695312 500.523438 377.289062 L 504.03125 375.351562 C 505.359375 374.621094 506.601562 373.765625 507.757812 372.78125 C 508.917969 371.800781 509.964844 370.714844 510.902344 369.523438 C 511.839844 368.332031 512.652344 367.0625 513.332031 365.707031 C 514.015625 364.351562 514.558594 362.945312 514.957031 361.480469 C 515.347656 360.042969 515.589844 358.578125 515.679688 357.089844 C 515.773438 355.601562 515.714844 354.121094 515.503906 352.644531 C 515.292969 351.167969 514.9375 349.730469 514.433594 348.328125 C 513.925781 346.925781 513.285156 345.585938 512.511719 344.3125 L 496.808594 318.238281 C 496.417969 317.613281 496.003906 317.011719 495.554688 316.425781 C 495.109375 315.84375 494.636719 315.28125 494.140625 314.742188 C 493.640625 314.203125 493.117188 313.691406 492.570312 313.199219 C 492.019531 312.710938 491.453125 312.25 490.859375 311.8125 C 490.269531 311.378906 489.660156 310.972656 489.027344 310.59375 C 488.398438 310.214844 487.753906 309.867188 487.089844 309.550781 C 486.425781 309.234375 485.75 308.949219 485.0625 308.699219 C 484.371094 308.445312 483.671875 308.226562 482.960938 308.039062 C 482.25 307.851562 481.53125 307.699219 480.808594 307.582031 C 480.082031 307.464844 479.355469 307.378906 478.621094 307.328125 C 477.886719 307.28125 477.15625 307.265625 476.421875 307.285156 C 475.6875 307.304688 474.953125 307.359375 474.226562 307.449219 C 473.496094 307.539062 472.773438 307.660156 472.054688 307.820312 C 471.339844 307.976562 470.628906 308.167969 469.929688 308.390625 C 469.230469 308.617188 468.542969 308.875 467.871094 309.164062 C 467.195312 309.453125 466.535156 309.773438 465.890625 310.125 L 461.769531 312.402344 C 456.078125 308.371094 450.023438 304.988281 443.609375 302.261719 L 443.609375 298.585938 C 443.597656 297.839844 443.554688 297.101562 443.472656 296.363281 C 443.394531 295.625 443.277344 294.890625 443.125 294.164062 C 442.972656 293.4375 442.785156 292.71875 442.558594 292.011719 C 442.335938 291.300781 442.078125 290.605469 441.789062 289.921875 C 441.496094 289.238281 441.171875 288.570312 440.816406 287.921875 C 440.460938 287.269531 440.070312 286.636719 439.652344 286.023438 C 439.234375 285.410156 438.785156 284.816406 438.308594 284.25 C 437.832031 283.679688 437.328125 283.132812 436.796875 282.613281 C 436.265625 282.09375 435.710938 281.601562 435.132812 281.136719 C 434.554688 280.667969 433.953125 280.234375 433.332031 279.824219 C 432.710938 279.417969 432.070312 279.042969 431.414062 278.699219 C 430.753906 278.355469 430.082031 278.042969 429.390625 277.765625 C 428.703125 277.488281 428.003906 277.246094 427.289062 277.035156 C 426.578125 276.828125 425.855469 276.652344 425.125 276.515625 C 424.394531 276.375 423.660156 276.273438 422.921875 276.207031 C 422.179688 276.140625 421.4375 276.113281 420.695312 276.117188 L 389.292969 276.117188 C 388.550781 276.113281 387.808594 276.140625 387.070312 276.210938 C 386.332031 276.277344 385.597656 276.378906 384.867188 276.515625 C 384.136719 276.65625 383.417969 276.828125 382.703125 277.039062 C 381.992188 277.25 381.289062 277.492188 380.601562 277.769531 C 379.914062 278.050781 379.242188 278.359375 378.582031 278.703125 C 377.925781 279.046875 377.285156 279.421875 376.664062 279.832031 C 376.042969 280.238281 375.441406 280.675781 374.863281 281.140625 C 374.285156 281.605469 373.730469 282.097656 373.203125 282.617188 C 372.671875 283.136719 372.167969 283.683594 371.691406 284.253906 C 371.214844 284.820312 370.765625 285.414062 370.347656 286.027344 C 369.929688 286.640625 369.542969 287.273438 369.183594 287.925781 C 368.828125 288.574219 368.503906 289.242188 368.214844 289.925781 C 367.921875 290.609375 367.664062 291.304688 367.441406 292.011719 C 367.21875 292.722656 367.03125 293.4375 366.878906 294.164062 C 366.726562 294.890625 366.609375 295.625 366.53125 296.363281 C 366.449219 297.101562 366.402344 297.839844 366.394531 298.585938 L 366.394531 302.289062 C 359.980469 305.015625 353.925781 308.394531 348.234375 312.425781 L 344.125 310.164062 C 343.480469 309.8125 342.820312 309.488281 342.144531 309.199219 C 341.46875 308.910156 340.78125 308.652344 340.082031 308.429688 C 339.382812 308.203125 338.675781 308.011719 337.957031 307.855469 C 337.238281 307.695312 336.515625 307.570312 335.785156 307.484375 C 335.054688 307.394531 334.324219 307.339844 333.589844 307.320312 C 332.851562 307.296875 332.117188 307.3125 331.386719 307.363281 C 330.652344 307.410156 329.921875 307.496094 329.195312 307.613281 C 328.472656 307.734375 327.753906 307.886719 327.042969 308.070312 C 326.332031 308.257812 325.628906 308.476562 324.941406 308.730469 C 324.25 308.984375 323.574219 309.269531 322.910156 309.585938 C 322.246094 309.902344 321.597656 310.25 320.96875 310.625 C 320.339844 311.003906 319.726562 311.410156 319.136719 311.847656 C 318.542969 312.285156 317.972656 312.746094 317.425781 313.234375 C 316.878906 313.726562 316.351562 314.238281 315.855469 314.78125 C 315.355469 315.320312 314.882812 315.878906 314.433594 316.464844 C 313.988281 317.050781 313.570312 317.652344 313.183594 318.277344 L 297.480469 344.339844 C 296.703125 345.613281 296.0625 346.949219 295.558594 348.351562 C 295.054688 349.757812 294.699219 351.195312 294.488281 352.671875 C 294.277344 354.148438 294.21875 355.628906 294.308594 357.117188 C 294.402344 358.605469 294.644531 360.070312 295.035156 361.507812 C 295.433594 362.96875 295.972656 364.375 296.652344 365.726562 C 297.332031 367.078125 298.140625 368.351562 299.078125 369.539062 C 300.015625 370.730469 301.058594 371.816406 302.214844 372.796875 C 303.367188 373.777344 304.605469 374.632812 305.933594 375.363281 L 309.464844 377.3125 C 308.75 383.71875 308.75 390.128906 309.464844 396.535156 L 305.945312 398.472656 C 304.613281 399.199219 303.367188 400.054688 302.207031 401.03125 C 301.046875 402.011719 299.992188 403.09375 299.050781 404.285156 C 298.109375 405.476562 297.292969 406.746094 296.605469 408.101562 C 295.917969 409.453125 295.371094 410.863281 294.96875 412.328125 Z M 335.03125 386.902344 C 335.035156 383.925781 335.246094 380.964844 335.675781 378.019531 C 335.820312 376.910156 335.878906 375.796875 335.859375 374.679688 C 335.835938 373.5625 335.730469 372.453125 335.539062 371.351562 C 335.347656 370.25 335.078125 369.167969 334.722656 368.109375 C 334.371094 367.046875 333.941406 366.019531 333.433594 365.023438 C 332.925781 364.027344 332.34375 363.074219 331.691406 362.167969 C 331.042969 361.257812 330.324219 360.402344 329.542969 359.601562 C 328.765625 358.804688 327.929688 358.066406 327.035156 357.390625 C 326.144531 356.71875 325.207031 356.113281 324.226562 355.578125 L 321.933594 354.273438 L 333.945312 334.382812 L 337.179688 336.148438 C 338.160156 336.679688 339.171875 337.140625 340.21875 337.527344 C 341.261719 337.914062 342.332031 338.222656 343.421875 338.460938 C 344.511719 338.695312 345.613281 338.851562 346.722656 338.929688 C 347.835938 339.011719 348.949219 339.011719 350.058594 338.929688 C 351.171875 338.851562 352.273438 338.695312 353.363281 338.460938 C 354.453125 338.222656 355.519531 337.914062 356.566406 337.527344 C 357.609375 337.140625 358.625 336.679688 359.605469 336.148438 C 360.585938 335.617188 361.523438 335.019531 362.417969 334.355469 C 367.222656 330.863281 372.386719 328.027344 377.910156 325.839844 C 378.96875 325.4375 379.992188 324.960938 380.980469 324.40625 C 381.964844 323.847656 382.90625 323.222656 383.800781 322.527344 C 384.691406 321.832031 385.527344 321.074219 386.308594 320.253906 C 387.085938 319.429688 387.800781 318.554688 388.449219 317.628906 C 389.097656 316.699219 389.671875 315.726562 390.175781 314.710938 C 390.675781 313.699219 391.101562 312.652344 391.445312 311.574219 C 391.792969 310.496094 392.054688 309.398438 392.238281 308.277344 C 392.417969 307.160156 392.515625 306.035156 392.527344 304.902344 L 392.527344 302.289062 L 417.464844 302.289062 L 417.464844 304.902344 C 417.476562 306.035156 417.574219 307.160156 417.753906 308.277344 C 417.933594 309.398438 418.199219 310.496094 418.542969 311.574219 C 418.890625 312.652344 419.3125 313.699219 419.816406 314.710938 C 420.316406 315.726562 420.894531 316.699219 421.542969 317.628906 C 422.191406 318.554688 422.902344 319.429688 423.683594 320.253906 C 424.460938 321.074219 425.296875 321.832031 426.191406 322.527344 C 427.085938 323.222656 428.023438 323.847656 429.011719 324.40625 C 430 324.960938 431.019531 325.4375 432.078125 325.839844 C 437.609375 328.054688 442.773438 330.925781 447.570312 334.449219 C 448.46875 335.113281 449.402344 335.710938 450.382812 336.242188 C 451.363281 336.773438 452.375 337.230469 453.421875 337.617188 C 454.464844 338.003906 455.53125 338.316406 456.621094 338.550781 C 457.710938 338.789062 458.8125 338.945312 459.921875 339.023438 C 461.035156 339.105469 462.144531 339.105469 463.257812 339.027344 C 464.367188 338.949219 465.46875 338.792969 466.558594 338.558594 C 467.648438 338.324219 468.714844 338.011719 469.761719 337.628906 C 470.804688 337.242188 471.820312 336.785156 472.796875 336.253906 L 476.042969 334.476562 L 488.054688 354.363281 L 485.792969 355.605469 C 484.808594 356.136719 483.867188 356.742188 482.976562 357.414062 C 482.082031 358.089844 481.242188 358.828125 480.460938 359.628906 C 479.679688 360.429688 478.960938 361.28125 478.308594 362.191406 C 477.65625 363.101562 477.074219 364.054688 476.566406 365.050781 C 476.054688 366.046875 475.625 367.074219 475.269531 368.136719 C 474.917969 369.199219 474.644531 370.28125 474.453125 371.382812 C 474.261719 372.488281 474.15625 373.597656 474.132812 374.714844 C 474.109375 375.835938 474.171875 376.949219 474.316406 378.058594 C 475.175781 383.976562 475.175781 389.894531 474.316406 395.816406 C 474.171875 396.925781 474.109375 398.039062 474.132812 399.15625 C 474.15625 400.273438 474.261719 401.386719 474.453125 402.488281 C 474.640625 403.589844 474.914062 404.671875 475.265625 405.734375 C 475.621094 406.796875 476.050781 407.824219 476.558594 408.820312 C 477.070312 409.816406 477.648438 410.769531 478.300781 411.679688 C 478.953125 412.589844 479.671875 413.445312 480.453125 414.246094 C 481.234375 415.042969 482.070312 415.78125 482.964844 416.457031 C 483.855469 417.132812 484.792969 417.734375 485.777344 418.269531 L 488.054688 419.511719 L 476.042969 439.398438 L 472.796875 437.621094 C 471.816406 437.09375 470.804688 436.636719 469.757812 436.253906 C 468.710938 435.867188 467.644531 435.558594 466.550781 435.328125 C 465.460938 435.09375 464.363281 434.9375 463.25 434.859375 C 462.136719 434.785156 461.027344 434.785156 459.914062 434.867188 C 458.804688 434.945312 457.703125 435.105469 456.613281 435.339844 C 455.523438 435.574219 454.457031 435.886719 453.410156 436.273438 C 452.367188 436.660156 451.355469 437.117188 450.375 437.648438 C 449.394531 438.179688 448.453125 438.777344 447.558594 439.4375 C 442.761719 442.960938 437.605469 445.824219 432.078125 448.035156 C 431.023438 448.4375 430 448.914062 429.011719 449.472656 C 428.027344 450.027344 427.085938 450.652344 426.195312 451.347656 C 425.300781 452.046875 424.464844 452.804688 423.6875 453.625 C 422.90625 454.445312 422.195312 455.320312 421.546875 456.25 C 420.898438 457.179688 420.324219 458.148438 419.820312 459.164062 C 419.316406 460.179688 418.894531 461.222656 418.546875 462.300781 C 418.203125 463.378906 417.9375 464.476562 417.757812 465.59375 C 417.574219 466.714844 417.476562 467.835938 417.464844 468.96875 L 417.464844 471.585938 L 392.527344 471.585938 L 392.527344 468.96875 C 392.511719 467.835938 392.414062 466.714844 392.234375 465.59375 C 392.054688 464.476562 391.789062 463.378906 391.441406 462.300781 C 391.097656 461.222656 390.671875 460.179688 390.171875 459.164062 C 389.667969 458.148438 389.09375 457.179688 388.445312 456.25 C 387.796875 455.320312 387.082031 454.445312 386.304688 453.625 C 385.523438 452.804688 384.6875 452.046875 383.796875 451.347656 C 382.902344 450.652344 381.964844 450.027344 380.976562 449.472656 C 379.992188 448.914062 378.96875 448.4375 377.910156 448.035156 C 372.382812 445.824219 367.21875 442.953125 362.417969 439.425781 C 361.523438 438.761719 360.582031 438.167969 359.601562 437.640625 C 358.621094 437.109375 357.609375 436.652344 356.5625 436.265625 C 355.519531 435.882812 354.449219 435.570312 353.363281 435.335938 C 352.273438 435.101562 351.171875 434.945312 350.058594 434.863281 C 348.949219 434.785156 347.835938 434.785156 346.726562 434.859375 C 345.613281 434.9375 344.511719 435.09375 343.425781 435.328125 C 342.335938 435.558594 341.265625 435.867188 340.21875 436.253906 C 339.175781 436.636719 338.160156 437.09375 337.179688 437.621094 L 333.945312 439.398438 L 321.933594 419.511719 L 324.210938 418.269531 C 325.195312 417.734375 326.132812 417.132812 327.027344 416.457031 C 327.917969 415.78125 328.757812 415.042969 329.539062 414.246094 C 330.320312 413.445312 331.035156 412.589844 331.6875 411.679688 C 332.339844 410.769531 332.921875 409.816406 333.429688 408.820312 C 333.941406 407.824219 334.371094 406.796875 334.722656 405.734375 C 335.078125 404.671875 335.347656 403.589844 335.539062 402.488281 C 335.730469 401.386719 335.835938 400.273438 335.859375 399.15625 C 335.882812 398.039062 335.820312 396.925781 335.675781 395.816406 C 335.246094 392.859375 335.03125 389.890625 335.03125 386.902344 Z M 335.03125 386.902344 " fill-opacity="1" fill-rule="nonzero"/><path fill="#34930c" d="M 404.996094 430.515625 C 406.425781 430.515625 407.851562 430.445312 409.273438 430.304688 C 410.695312 430.167969 412.105469 429.957031 413.507812 429.679688 C 414.910156 429.402344 416.292969 429.054688 417.660156 428.640625 C 419.027344 428.226562 420.371094 427.746094 421.691406 427.199219 C 423.011719 426.652344 424.304688 426.042969 425.5625 425.367188 C 426.824219 424.695312 428.046875 423.960938 429.234375 423.167969 C 430.425781 422.375 431.570312 421.523438 432.675781 420.617188 C 433.78125 419.710938 434.839844 418.753906 435.847656 417.742188 C 436.859375 416.734375 437.816406 415.675781 438.726562 414.570312 C 439.632812 413.46875 440.480469 412.320312 441.277344 411.132812 C 442.070312 409.945312 442.804688 408.722656 443.476562 407.460938 C 444.152344 406.203125 444.761719 404.910156 445.308594 403.589844 C 445.855469 402.269531 446.335938 400.925781 446.75 399.558594 C 447.167969 398.191406 447.515625 396.808594 447.792969 395.40625 C 448.070312 394.003906 448.28125 392.59375 448.421875 391.171875 C 448.5625 389.75 448.632812 388.324219 448.632812 386.894531 C 448.632812 385.464844 448.5625 384.042969 448.421875 382.617188 C 448.28125 381.195312 448.074219 379.785156 447.792969 378.382812 C 447.515625 376.980469 447.167969 375.597656 446.753906 374.230469 C 446.339844 372.863281 445.859375 371.519531 445.3125 370.199219 C 444.765625 368.878906 444.15625 367.589844 443.480469 366.328125 C 442.808594 365.070312 442.074219 363.84375 441.28125 362.65625 C 440.488281 361.46875 439.636719 360.320312 438.730469 359.21875 C 437.824219 358.113281 436.867188 357.054688 435.855469 356.042969 C 434.84375 355.035156 433.785156 354.074219 432.683594 353.167969 C 431.578125 352.261719 430.429688 351.414062 429.242188 350.617188 C 428.054688 349.824219 426.832031 349.089844 425.570312 348.417969 C 424.3125 347.746094 423.019531 347.132812 421.699219 346.585938 C 420.378906 346.039062 419.035156 345.558594 417.667969 345.144531 C 416.300781 344.730469 414.917969 344.382812 413.515625 344.105469 C 412.113281 343.828125 410.703125 343.617188 409.28125 343.476562 C 407.859375 343.335938 406.433594 343.265625 405.003906 343.269531 C 403.574219 343.269531 402.148438 343.339844 400.726562 343.476562 C 399.304688 343.617188 397.894531 343.828125 396.492188 344.105469 C 395.089844 344.386719 393.707031 344.734375 392.339844 345.148438 C 390.972656 345.5625 389.628906 346.042969 388.308594 346.589844 C 386.988281 347.136719 385.699219 347.75 384.4375 348.421875 C 383.179688 349.097656 381.953125 349.828125 380.765625 350.625 C 379.578125 351.417969 378.433594 352.269531 377.328125 353.175781 C 376.222656 354.082031 375.164062 355.039062 374.15625 356.050781 C 373.144531 357.0625 372.1875 358.117188 371.28125 359.222656 C 370.375 360.328125 369.523438 361.476562 368.730469 362.664062 C 367.9375 363.851562 367.203125 365.074219 366.53125 366.335938 C 365.859375 367.597656 365.246094 368.886719 364.703125 370.207031 C 364.15625 371.527344 363.675781 372.871094 363.261719 374.238281 C 362.84375 375.605469 362.5 376.992188 362.222656 378.390625 C 361.941406 379.792969 361.734375 381.207031 361.59375 382.628906 C 361.453125 384.050781 361.382812 385.476562 361.386719 386.902344 C 361.386719 388.332031 361.457031 389.757812 361.597656 391.175781 C 361.742188 392.597656 361.953125 394.007812 362.230469 395.410156 C 362.511719 396.808594 362.859375 398.191406 363.273438 399.558594 C 363.691406 400.921875 364.171875 402.265625 364.71875 403.585938 C 365.265625 404.902344 365.875 406.191406 366.550781 407.453125 C 367.222656 408.710938 367.957031 409.933594 368.75 411.121094 C 369.542969 412.308594 370.394531 413.453125 371.300781 414.554688 C 372.207031 415.660156 373.164062 416.714844 374.171875 417.726562 C 375.183594 418.734375 376.238281 419.695312 377.34375 420.597656 C 378.445312 421.503906 379.59375 422.355469 380.777344 423.148438 C 381.964844 423.941406 383.1875 424.675781 384.449219 425.351562 C 385.707031 426.023438 386.996094 426.632812 388.3125 427.179688 C 389.632812 427.726562 390.976562 428.210938 392.339844 428.625 C 393.707031 429.039062 395.089844 429.386719 396.492188 429.667969 C 397.890625 429.949219 399.300781 430.160156 400.722656 430.300781 C 402.144531 430.441406 403.566406 430.511719 404.996094 430.515625 Z M 404.996094 369.449219 C 405.566406 369.449219 406.136719 369.476562 406.707031 369.53125 C 407.277344 369.589844 407.839844 369.671875 408.402344 369.78125 C 408.960938 369.894531 409.515625 370.03125 410.0625 370.199219 C 410.609375 370.363281 411.148438 370.554688 411.675781 370.773438 C 412.207031 370.992188 412.722656 371.234375 413.226562 371.503906 C 413.730469 371.773438 414.21875 372.066406 414.695312 372.386719 C 415.171875 372.703125 415.628906 373.042969 416.074219 373.40625 C 416.515625 373.765625 416.9375 374.148438 417.34375 374.554688 C 417.746094 374.957031 418.132812 375.382812 418.496094 375.824219 C 418.855469 376.265625 419.199219 376.722656 419.515625 377.199219 C 419.832031 377.671875 420.128906 378.164062 420.398438 378.667969 C 420.667969 379.171875 420.910156 379.6875 421.128906 380.214844 C 421.351562 380.742188 421.542969 381.28125 421.707031 381.828125 C 421.875 382.375 422.015625 382.929688 422.125 383.488281 C 422.238281 384.050781 422.320312 384.617188 422.378906 385.183594 C 422.433594 385.753906 422.460938 386.324219 422.464844 386.894531 C 422.464844 387.46875 422.433594 388.039062 422.378906 388.605469 C 422.324219 389.175781 422.242188 389.742188 422.128906 390.300781 C 422.019531 390.863281 421.878906 391.417969 421.714844 391.964844 C 421.546875 392.511719 421.355469 393.046875 421.136719 393.578125 C 420.917969 394.105469 420.675781 394.621094 420.40625 395.125 C 420.136719 395.628906 419.84375 396.121094 419.523438 396.59375 C 419.207031 397.070312 418.867188 397.53125 418.503906 397.972656 C 418.144531 398.414062 417.757812 398.835938 417.355469 399.242188 C 416.953125 399.644531 416.527344 400.03125 416.085938 400.394531 C 415.644531 400.753906 415.1875 401.097656 414.710938 401.414062 C 414.234375 401.730469 413.746094 402.027344 413.242188 402.296875 C 412.738281 402.566406 412.222656 402.808594 411.691406 403.027344 C 411.164062 403.246094 410.628906 403.441406 410.082031 403.605469 C 409.53125 403.773438 408.980469 403.910156 408.417969 404.023438 C 407.859375 404.132812 407.292969 404.21875 406.722656 404.273438 C 406.15625 404.332031 405.585938 404.359375 405.011719 404.359375 C 404.441406 404.359375 403.871094 404.332031 403.300781 404.273438 C 402.734375 404.21875 402.167969 404.136719 401.605469 404.023438 C 401.046875 403.914062 400.492188 403.773438 399.945312 403.609375 C 399.398438 403.441406 398.859375 403.25 398.332031 403.03125 C 397.804688 402.8125 397.289062 402.570312 396.78125 402.300781 C 396.277344 402.03125 395.789062 401.734375 395.3125 401.417969 C 394.839844 401.101562 394.378906 400.761719 393.9375 400.398438 C 393.496094 400.035156 393.070312 399.652344 392.667969 399.25 C 392.261719 398.84375 391.878906 398.421875 391.515625 397.980469 C 391.152344 397.535156 390.8125 397.078125 390.496094 396.601562 C 390.179688 396.128906 389.886719 395.636719 389.617188 395.132812 C 389.347656 394.628906 389.101562 394.113281 388.882812 393.585938 C 388.664062 393.054688 388.472656 392.519531 388.304688 391.972656 C 388.140625 391.425781 388 390.871094 387.890625 390.308594 C 387.777344 389.75 387.695312 389.183594 387.636719 388.617188 C 387.582031 388.046875 387.554688 387.476562 387.554688 386.902344 C 387.554688 386.332031 387.582031 385.761719 387.640625 385.195312 C 387.695312 384.625 387.777344 384.0625 387.890625 383.5 C 388.003906 382.941406 388.140625 382.386719 388.308594 381.839844 C 388.472656 381.292969 388.664062 380.757812 388.882812 380.230469 C 389.101562 379.703125 389.347656 379.1875 389.617188 378.683594 C 389.886719 378.179688 390.179688 377.6875 390.496094 377.214844 C 390.8125 376.738281 391.152344 376.28125 391.515625 375.839844 C 391.878906 375.398438 392.261719 374.972656 392.664062 374.570312 C 393.070312 374.167969 393.492188 373.78125 393.933594 373.421875 C 394.375 373.058594 394.832031 372.71875 395.308594 372.398438 C 395.78125 372.082031 396.269531 371.789062 396.773438 371.519531 C 397.277344 371.25 397.792969 371.003906 398.320312 370.785156 C 398.847656 370.566406 399.386719 370.375 399.933594 370.207031 C 400.480469 370.039062 401.03125 369.902344 401.59375 369.789062 C 402.152344 369.675781 402.71875 369.59375 403.285156 369.535156 C 403.855469 369.480469 404.425781 369.449219 404.996094 369.449219 Z M 404.996094 369.449219 " fill-opacity="1" fill-rule="nonzero"/><path fill="#34930c" d="M 318.636719 549.257812 L 318.636719 618.929688 C 318.636719 620.34375 318.671875 621.757812 318.742188 623.167969 C 318.8125 624.578125 318.914062 625.988281 319.054688 627.394531 C 319.191406 628.800781 319.367188 630.203125 319.574219 631.601562 C 319.78125 633 320.023438 634.390625 320.296875 635.777344 C 320.574219 637.164062 320.882812 638.542969 321.226562 639.914062 C 321.570312 641.285156 321.945312 642.644531 322.355469 644 C 322.765625 645.351562 323.210938 646.691406 323.6875 648.023438 C 324.164062 649.355469 324.671875 650.671875 325.210938 651.976562 C 325.753906 653.285156 326.324219 654.574219 326.929688 655.851562 C 327.535156 657.128906 328.167969 658.394531 328.835938 659.640625 C 329.5 660.886719 330.199219 662.113281 330.925781 663.328125 C 331.652344 664.539062 332.40625 665.734375 333.191406 666.90625 C 333.976562 668.082031 334.789062 669.238281 335.632812 670.375 C 336.472656 671.507812 337.34375 672.621094 338.238281 673.714844 C 339.136719 674.808594 340.058594 675.878906 341.007812 676.925781 C 341.957031 677.972656 342.933594 678.996094 343.929688 679.996094 C 344.929688 680.992188 345.953125 681.96875 347 682.917969 C 348.046875 683.867188 349.117188 684.789062 350.210938 685.6875 C 351.304688 686.582031 352.417969 687.453125 353.550781 688.292969 C 354.6875 689.136719 355.84375 689.949219 357.019531 690.734375 C 358.191406 691.519531 359.386719 692.273438 360.597656 693 C 361.8125 693.726562 363.039062 694.425781 364.285156 695.089844 C 365.53125 695.757812 366.796875 696.390625 368.074219 696.996094 C 369.351562 697.601562 370.640625 698.171875 371.949219 698.714844 C 373.253906 699.253906 374.570312 699.761719 375.902344 700.238281 C 377.234375 700.714844 378.574219 701.160156 379.925781 701.570312 C 381.28125 701.980469 382.640625 702.355469 384.011719 702.699219 C 385.382812 703.042969 386.761719 703.351562 388.148438 703.628906 C 389.535156 703.902344 390.925781 704.144531 392.324219 704.351562 C 393.722656 704.558594 395.125 704.734375 396.53125 704.871094 C 397.9375 705.011719 399.347656 705.113281 400.757812 705.183594 C 402.167969 705.253906 403.582031 705.289062 404.996094 705.289062 C 406.410156 705.289062 407.820312 705.253906 409.234375 705.183594 C 410.644531 705.113281 412.054688 705.011719 413.460938 704.871094 C 414.867188 704.734375 416.269531 704.558594 417.667969 704.351562 C 419.066406 704.144531 420.457031 703.902344 421.84375 703.628906 C 423.230469 703.351562 424.605469 703.042969 425.976562 702.699219 C 427.347656 702.355469 428.710938 701.980469 430.0625 701.570312 C 431.414062 701.160156 432.757812 700.714844 434.089844 700.238281 C 435.417969 699.761719 436.738281 699.253906 438.042969 698.714844 C 439.347656 698.171875 440.640625 697.601562 441.917969 696.996094 C 443.195312 696.390625 444.457031 695.757812 445.703125 695.089844 C 446.949219 694.425781 448.179688 693.726562 449.390625 693 C 450.605469 692.273438 451.796875 691.519531 452.972656 690.734375 C 454.148438 689.949219 455.304688 689.136719 456.4375 688.292969 C 457.574219 687.453125 458.6875 686.582031 459.78125 685.6875 C 460.871094 684.789062 461.941406 683.867188 462.988281 682.917969 C 464.035156 681.96875 465.058594 680.992188 466.058594 679.996094 C 467.058594 678.996094 468.03125 677.972656 468.980469 676.925781 C 469.929688 675.878906 470.855469 674.808594 471.75 673.714844 C 472.648438 672.621094 473.515625 671.507812 474.359375 670.375 C 475.199219 669.238281 476.011719 668.082031 476.796875 666.90625 C 477.582031 665.734375 478.339844 664.539062 479.066406 663.328125 C 479.792969 662.113281 480.488281 660.886719 481.15625 659.640625 C 481.820312 658.390625 482.457031 657.128906 483.0625 655.851562 C 483.664062 654.574219 484.238281 653.285156 484.777344 651.976562 C 485.320312 650.671875 485.828125 649.355469 486.304688 648.023438 C 486.78125 646.691406 487.222656 645.351562 487.632812 644 C 488.042969 642.644531 488.421875 641.285156 488.765625 639.914062 C 489.109375 638.542969 489.417969 637.164062 489.691406 635.777344 C 489.96875 634.390625 490.210938 633 490.417969 631.601562 C 490.625 630.203125 490.796875 628.800781 490.9375 627.394531 C 491.074219 625.988281 491.179688 624.578125 491.25 623.167969 C 491.316406 621.757812 491.351562 620.34375 491.351562 618.929688 L 491.351562 549.242188 C 495.007812 547.285156 498.59375 545.210938 502.109375 543.015625 C 505.625 540.816406 509.0625 538.503906 512.421875 536.074219 C 515.785156 533.648438 519.058594 531.109375 522.25 528.460938 C 525.4375 525.8125 528.535156 523.0625 531.539062 520.203125 C 534.542969 517.347656 537.449219 514.394531 540.253906 511.339844 C 543.0625 508.289062 545.761719 505.148438 548.355469 501.914062 C 550.949219 498.679688 553.433594 495.363281 555.804688 491.960938 C 558.175781 488.5625 560.429688 485.085938 562.570312 481.535156 C 564.707031 477.980469 566.722656 474.363281 568.617188 470.675781 C 570.511719 466.988281 572.28125 463.238281 573.921875 459.433594 C 575.5625 455.625 577.078125 451.769531 578.460938 447.859375 C 579.84375 443.953125 581.09375 440.003906 582.210938 436.011719 C 583.328125 432.019531 584.308594 427.992188 585.15625 423.933594 C 586.003906 419.875 586.710938 415.792969 587.285156 411.6875 C 587.855469 407.582031 588.289062 403.460938 588.585938 399.324219 C 588.882812 395.191406 589.039062 391.050781 589.054688 386.902344 C 589.054688 383.800781 588.976562 380.695312 588.816406 377.597656 C 588.660156 374.496094 588.425781 371.398438 588.113281 368.3125 C 587.796875 365.222656 587.40625 362.144531 586.9375 359.074219 C 586.46875 356.003906 585.921875 352.949219 585.296875 349.910156 C 584.671875 346.867188 583.972656 343.84375 583.195312 340.839844 C 582.417969 337.832031 581.5625 334.847656 580.636719 331.886719 C 579.707031 328.921875 578.707031 325.984375 577.628906 323.074219 C 576.550781 320.160156 575.402344 317.277344 574.179688 314.425781 C 572.957031 311.570312 571.664062 308.75 570.296875 305.960938 C 568.933594 303.171875 567.496094 300.421875 565.992188 297.703125 C 564.488281 294.988281 562.914062 292.3125 561.273438 289.675781 C 559.636719 287.039062 557.929688 284.449219 556.15625 281.898438 C 554.386719 279.347656 552.550781 276.84375 550.652344 274.386719 C 548.757812 271.929688 546.796875 269.523438 544.777344 267.164062 C 542.757812 264.808594 540.679688 262.5 538.542969 260.25 C 536.40625 257.996094 534.214844 255.796875 531.96875 253.65625 C 529.71875 251.515625 527.417969 249.429688 525.066406 247.40625 C 522.710938 245.378906 520.308594 243.414062 517.859375 241.511719 C 515.40625 239.609375 512.90625 237.765625 510.359375 235.988281 C 507.816406 234.210938 505.226562 232.5 502.59375 230.855469 C 499.960938 229.207031 497.289062 227.628906 494.578125 226.117188 C 491.863281 224.605469 489.117188 223.164062 486.332031 221.792969 C 483.546875 220.421875 480.726562 219.121094 477.878906 217.890625 C 475.027344 216.660156 472.144531 215.503906 469.238281 214.421875 C 466.328125 213.335938 463.390625 212.328125 460.429688 211.390625 C 457.472656 210.457031 454.488281 209.597656 451.484375 208.8125 C 448.480469 208.027344 445.457031 207.320312 442.417969 206.6875 C 439.378906 206.058594 436.324219 205.503906 433.257812 205.027344 C 430.1875 204.550781 427.109375 204.148438 424.023438 203.828125 C 420.933594 203.507812 417.839844 203.265625 414.742188 203.101562 C 411.640625 202.9375 408.539062 202.851562 405.433594 202.84375 C 402.328125 202.835938 399.226562 202.90625 396.125 203.054688 C 393.628906 203.171875 391.140625 203.34375 388.652344 203.5625 C 386.164062 203.785156 383.683594 204.054688 381.207031 204.375 C 378.730469 204.699219 376.261719 205.070312 373.800781 205.492188 C 371.339844 205.914062 368.890625 206.386719 366.449219 206.90625 C 364.003906 207.429688 361.574219 208 359.15625 208.621094 C 356.738281 209.242188 354.332031 209.910156 351.941406 210.628906 C 349.550781 211.347656 347.175781 212.113281 344.816406 212.929688 C 342.457031 213.746094 340.113281 214.609375 337.789062 215.519531 C 335.464844 216.429688 333.15625 217.386719 330.871094 218.394531 C 328.585938 219.398438 326.320312 220.449219 324.078125 221.546875 C 321.835938 222.640625 319.617188 223.785156 317.417969 224.972656 C 315.222656 226.160156 313.050781 227.390625 310.90625 228.664062 C 308.757812 229.941406 306.636719 231.261719 304.546875 232.621094 C 302.453125 233.984375 300.390625 235.386719 298.351562 236.835938 C 296.316406 238.28125 294.3125 239.765625 292.335938 241.296875 C 290.363281 242.824219 288.417969 244.390625 286.507812 245.996094 C 284.597656 247.605469 282.71875 249.25 280.875 250.933594 C 279.03125 252.617188 277.222656 254.335938 275.449219 256.09375 C 273.675781 257.851562 271.9375 259.640625 270.234375 261.46875 C 268.535156 263.296875 266.871094 265.160156 265.246094 267.054688 C 263.621094 268.949219 262.035156 270.878906 260.488281 272.839844 C 258.941406 274.796875 257.433594 276.789062 255.96875 278.8125 C 254.503906 280.832031 253.078125 282.882812 251.695312 284.960938 C 250.316406 287.042969 248.976562 289.148438 247.679688 291.28125 C 246.382812 293.417969 245.128906 295.574219 243.921875 297.761719 C 242.714844 299.945312 241.550781 302.152344 240.429688 304.386719 C 239.3125 306.617188 238.238281 308.875 237.214844 311.148438 C 236.1875 313.425781 235.207031 315.722656 234.273438 318.039062 C 233.339844 320.351562 232.453125 322.6875 231.617188 325.039062 C 230.777344 327.390625 229.988281 329.757812 229.246094 332.144531 C 228.503906 334.527344 227.8125 336.925781 227.167969 339.339844 C 226.523438 341.75 225.929688 344.175781 225.382812 346.613281 C 224.835938 349.046875 224.34375 351.496094 223.894531 353.953125 C 223.449219 356.410156 223.054688 358.875 222.710938 361.347656 C 222.363281 363.820312 222.070312 366.296875 221.824219 368.78125 C 221.582031 371.269531 221.386719 373.757812 221.242188 376.25 C 221.101562 378.742188 221.007812 381.238281 220.96875 383.734375 C 220.925781 386.230469 220.933594 388.726562 220.996094 391.222656 C 221.054688 393.71875 221.167969 396.214844 221.328125 398.703125 C 221.488281 401.195312 221.703125 403.683594 221.964844 406.167969 C 222.230469 408.648438 222.542969 411.125 222.90625 413.597656 C 223.269531 416.066406 223.683594 418.527344 224.148438 420.980469 C 224.613281 423.433594 225.125 425.878906 225.691406 428.3125 C 226.253906 430.742188 226.867188 433.164062 227.527344 435.570312 C 228.191406 437.976562 228.902344 440.371094 229.660156 442.75 C 230.421875 445.128906 231.230469 447.492188 232.085938 449.835938 C 232.941406 452.179688 233.84375 454.507812 234.792969 456.816406 C 235.746094 459.125 236.742188 461.414062 237.785156 463.683594 C 238.832031 465.953125 239.917969 468.199219 241.054688 470.421875 C 242.191406 472.644531 243.371094 474.84375 244.59375 477.019531 C 245.820312 479.195312 247.089844 481.347656 248.402344 483.472656 C 249.714844 485.59375 251.070312 487.691406 252.464844 489.761719 C 253.863281 491.828125 255.304688 493.871094 256.785156 495.878906 C 258.265625 497.890625 259.785156 499.871094 261.347656 501.816406 C 262.910156 503.765625 264.511719 505.683594 266.148438 507.566406 C 267.789062 509.449219 269.464844 511.296875 271.179688 513.113281 C 272.894531 514.925781 274.648438 516.707031 276.433594 518.449219 C 278.222656 520.195312 280.042969 521.902344 281.902344 523.570312 C 283.757812 525.238281 285.648438 526.871094 287.570312 528.464844 C 289.492188 530.054688 291.449219 531.609375 293.433594 533.121094 C 295.421875 534.632812 297.4375 536.105469 299.484375 537.535156 C 301.53125 538.96875 303.605469 540.355469 305.707031 541.703125 C 307.8125 543.046875 309.941406 544.351562 312.097656 545.609375 C 314.25 546.871094 316.433594 548.085938 318.636719 549.257812 Z M 404.996094 679.117188 C 403.472656 679.113281 401.953125 679.054688 400.4375 678.933594 C 398.921875 678.8125 397.410156 678.636719 395.90625 678.402344 C 394.40625 678.167969 392.910156 677.878906 391.429688 677.53125 C 389.949219 677.183594 388.484375 676.78125 387.03125 676.324219 C 385.582031 675.867188 384.148438 675.351562 382.738281 674.785156 C 381.328125 674.21875 379.9375 673.601562 378.574219 672.925781 C 377.207031 672.253906 375.871094 671.53125 374.5625 670.757812 C 373.25 669.984375 371.972656 669.164062 370.722656 668.292969 C 369.476562 667.421875 368.261719 666.503906 367.085938 665.542969 C 365.90625 664.582031 364.765625 663.574219 363.664062 662.527344 C 362.5625 661.476562 361.5 660.386719 360.480469 659.257812 C 359.460938 658.128906 358.488281 656.960938 357.554688 655.757812 C 356.625 654.554688 355.742188 653.320312 354.90625 652.046875 C 354.066406 650.777344 353.28125 649.476562 352.539062 648.148438 C 351.800781 646.816406 351.113281 645.460938 350.480469 644.078125 C 349.84375 642.695312 349.261719 641.292969 348.730469 639.867188 L 461.257812 639.867188 C 460.730469 641.292969 460.148438 642.695312 459.511719 644.078125 C 458.875 645.460938 458.1875 646.816406 457.449219 648.148438 C 456.710938 649.476562 455.921875 650.777344 455.085938 652.046875 C 454.25 653.320312 453.363281 654.554688 452.433594 655.757812 C 451.503906 656.960938 450.527344 658.128906 449.507812 659.257812 C 448.488281 660.386719 447.429688 661.476562 446.328125 662.527344 C 445.222656 663.574219 444.085938 664.582031 442.90625 665.542969 C 441.726562 666.503906 440.515625 667.421875 439.265625 668.292969 C 438.019531 669.164062 436.738281 669.984375 435.429688 670.757812 C 434.121094 671.53125 432.78125 672.253906 431.417969 672.925781 C 430.050781 673.601562 428.664062 674.21875 427.253906 674.785156 C 425.839844 675.351562 424.410156 675.867188 422.957031 676.324219 C 421.507812 676.78125 420.042969 677.183594 418.558594 677.53125 C 417.078125 677.878906 415.585938 678.167969 414.082031 678.402344 C 412.578125 678.636719 411.070312 678.8125 409.550781 678.933594 C 408.035156 679.054688 406.515625 679.113281 404.996094 679.117188 Z M 465.183594 613.695312 L 344.808594 613.695312 L 344.808594 583.171875 L 465.183594 583.171875 Z M 247.757812 372.378906 C 247.980469 370.039062 248.25 367.703125 248.574219 365.371094 C 248.898438 363.042969 249.273438 360.722656 249.699219 358.40625 C 250.125 356.09375 250.605469 353.792969 251.132812 351.5 C 251.664062 349.207031 252.242188 346.929688 252.875 344.664062 C 253.507812 342.398438 254.1875 340.148438 254.921875 337.910156 C 255.652344 335.675781 256.433594 333.457031 257.265625 331.257812 C 258.09375 329.058594 258.976562 326.875 259.902344 324.714844 C 260.832031 322.554688 261.808594 320.414062 262.832031 318.296875 C 263.855469 316.179688 264.925781 314.085938 266.042969 312.015625 C 267.160156 309.945312 268.320312 307.902344 269.53125 305.882812 C 270.738281 303.863281 271.992188 301.875 273.289062 299.910156 C 274.585938 297.949219 275.925781 296.019531 277.308594 294.117188 C 278.695312 292.214844 280.117188 290.34375 281.585938 288.503906 C 283.054688 286.664062 284.558594 284.859375 286.109375 283.089844 C 287.65625 281.316406 289.242188 279.582031 290.867188 277.878906 C 292.492188 276.179688 294.152344 274.515625 295.851562 272.890625 C 297.550781 271.261719 299.289062 269.675781 301.058594 268.125 C 302.828125 266.578125 304.632812 265.070312 306.46875 263.601562 C 308.304688 262.132812 310.175781 260.703125 312.078125 259.320312 C 313.976562 257.933594 315.910156 256.59375 317.871094 255.292969 C 319.832031 253.996094 321.820312 252.742188 323.835938 251.53125 C 325.855469 250.320312 327.898438 249.15625 329.964844 248.035156 C 332.035156 246.917969 334.128906 245.84375 336.246094 244.820312 C 338.363281 243.792969 340.5 242.816406 342.660156 241.886719 C 344.824219 240.957031 347.003906 240.074219 349.203125 239.242188 C 351.402344 238.410156 353.621094 237.625 355.855469 236.894531 C 358.089844 236.160156 360.339844 235.476562 362.605469 234.84375 C 364.871094 234.207031 367.148438 233.625 369.441406 233.09375 C 371.730469 232.5625 374.035156 232.082031 376.347656 231.652344 C 378.660156 231.226562 380.980469 230.847656 383.308594 230.523438 C 385.640625 230.199219 387.976562 229.925781 390.316406 229.703125 C 392.660156 229.484375 395.003906 229.3125 397.355469 229.199219 C 399.972656 229.066406 402.496094 229.015625 405.046875 229.015625 C 407.632812 229.015625 410.214844 229.078125 412.792969 229.207031 C 415.375 229.332031 417.949219 229.523438 420.519531 229.777344 C 423.089844 230.03125 425.65625 230.347656 428.210938 230.730469 C 430.765625 231.109375 433.308594 231.550781 435.84375 232.054688 C 438.378906 232.558594 440.898438 233.125 443.402344 233.753906 C 445.910156 234.382812 448.398438 235.070312 450.871094 235.824219 C 453.34375 236.574219 455.792969 237.382812 458.226562 238.253906 C 460.660156 239.125 463.070312 240.054688 465.457031 241.042969 C 467.84375 242.035156 470.203125 243.082031 472.539062 244.1875 C 474.875 245.289062 477.179688 246.453125 479.457031 247.671875 C 481.738281 248.890625 483.984375 250.164062 486.199219 251.492188 C 488.414062 252.820312 490.597656 254.203125 492.746094 255.636719 C 494.890625 257.074219 497.003906 258.5625 499.078125 260.101562 C 501.152344 261.640625 503.1875 263.230469 505.1875 264.867188 C 507.183594 266.507812 509.136719 268.195312 511.050781 269.929688 C 512.964844 271.664062 514.835938 273.445312 516.664062 275.273438 C 518.488281 277.101562 520.269531 278.972656 522.003906 280.886719 C 523.738281 282.800781 525.425781 284.757812 527.0625 286.753906 C 528.703125 288.75 530.292969 290.789062 531.832031 292.863281 C 533.367188 294.9375 534.855469 297.050781 536.289062 299.199219 C 537.726562 301.347656 539.105469 303.527344 540.433594 305.746094 C 541.761719 307.960938 543.035156 310.207031 544.253906 312.488281 C 545.472656 314.765625 546.632812 317.074219 547.734375 319.410156 C 548.839844 321.746094 549.886719 324.105469 550.875 326.492188 C 551.863281 328.878906 552.792969 331.289062 553.664062 333.722656 C 554.53125 336.15625 555.34375 338.605469 556.09375 341.078125 C 556.84375 343.550781 557.53125 346.039062 558.15625 348.546875 C 558.785156 351.054688 559.351562 353.574219 559.855469 356.105469 C 560.359375 358.640625 560.800781 361.1875 561.179688 363.742188 C 561.558594 366.296875 561.875 368.859375 562.125 371.429688 C 562.378906 374.003906 562.570312 376.578125 562.695312 379.160156 C 562.820312 381.738281 562.886719 384.320312 562.886719 386.902344 C 562.867188 390.609375 562.722656 394.3125 562.449219 398.007812 C 562.171875 401.703125 561.765625 405.386719 561.234375 409.054688 C 560.699219 412.722656 560.039062 416.367188 559.25 419.988281 C 558.460938 423.609375 557.546875 427.199219 556.503906 430.757812 C 555.464844 434.3125 554.300781 437.832031 553.011719 441.304688 C 551.726562 444.78125 550.320312 448.207031 548.792969 451.585938 C 547.265625 454.960938 545.621094 458.28125 543.859375 461.542969 C 542.101562 464.804688 540.230469 468.003906 538.246094 471.132812 C 536.261719 474.265625 534.171875 477.320312 531.972656 480.304688 C 529.773438 483.289062 527.472656 486.195312 525.074219 489.015625 C 522.671875 491.839844 520.171875 494.574219 517.578125 497.222656 C 514.988281 499.871094 512.304688 502.425781 509.53125 504.886719 C 506.757812 507.347656 503.902344 509.707031 500.964844 511.964844 C 498.027344 514.226562 495.015625 516.378906 491.925781 518.429688 C 488.835938 520.476562 485.679688 522.414062 482.457031 524.242188 C 479.230469 526.070312 475.945312 527.785156 472.601562 529.378906 C 471.488281 529.910156 470.472656 530.585938 469.546875 531.402344 C 468.625 532.222656 467.835938 533.152344 467.175781 534.191406 C 466.515625 535.234375 466.011719 536.347656 465.667969 537.53125 C 465.324219 538.714844 465.148438 539.921875 465.144531 541.15625 L 465.144531 556.960938 L 344.808594 556.960938 L 344.808594 541.195312 C 344.804688 539.960938 344.628906 538.753906 344.285156 537.570312 C 343.9375 536.386719 343.4375 535.273438 342.777344 534.230469 C 342.117188 533.191406 341.324219 532.261719 340.402344 531.441406 C 339.480469 530.625 338.460938 529.949219 337.347656 529.417969 C 333.710938 527.714844 330.148438 525.875 326.652344 523.894531 C 323.15625 521.917969 319.742188 519.808594 316.410156 517.566406 C 313.078125 515.328125 309.835938 512.960938 306.683594 510.472656 C 303.53125 507.984375 300.480469 505.375 297.527344 502.652344 C 294.578125 499.929688 291.734375 497.09375 289 494.152344 C 286.265625 491.210938 283.652344 488.167969 281.148438 485.027344 C 278.648438 481.882812 276.273438 478.648438 274.023438 475.324219 C 271.769531 471.996094 269.648438 468.589844 267.660156 465.101562 C 265.671875 461.613281 263.816406 458.054688 262.101562 454.421875 C 260.382812 450.792969 258.808594 447.101562 257.375 443.351562 C 255.941406 439.597656 254.652344 435.796875 253.511719 431.945312 C 252.371094 428.097656 251.378906 424.207031 250.535156 420.28125 C 249.695312 416.355469 249.003906 412.402344 248.464844 408.421875 C 247.925781 404.441406 247.539062 400.445312 247.304688 396.4375 C 247.074219 392.429688 246.996094 388.414062 247.070312 384.398438 C 247.148438 380.386719 247.375 376.378906 247.757812 372.378906 Z M 247.757812 372.378906 " fill-opacity="1" fill-rule="nonzero"/><path fill="#34930c" d="M 223.03125 223.4375 L 241.535156 204.933594 L 267.4375 230.839844 L 248.933594 249.34375 Z M 223.03125 223.4375 " fill-opacity="1" fill-rule="nonzero"/><g clip-path="url(#2bb77907d9)"><path fill="#34930c" d="M 643.761719 21.742188 L 569.78125 3.058594 C 568.660156 2.777344 567.519531 2.648438 566.363281 2.671875 C 565.207031 2.691406 564.074219 2.863281 562.964844 3.1875 C 561.851562 3.507812 560.800781 3.96875 559.8125 4.570312 C 558.824219 5.167969 557.933594 5.886719 557.132812 6.726562 C 556.335938 7.5625 555.660156 8.488281 555.109375 9.503906 C 554.558594 10.519531 554.148438 11.589844 553.878906 12.714844 C 553.609375 13.839844 553.492188 14.980469 553.527344 16.136719 C 553.5625 17.292969 553.746094 18.425781 554.078125 19.53125 L 561.695312 44.773438 C 512.863281 59.949219 457.019531 73.78125 402.707031 87.21875 C 340.121094 102.695312 275.421875 118.699219 220.976562 136.9375 C 148.238281 161.105469 64.800781 197.207031 64.800781 261.921875 C 64.800781 321.703125 136.828125 355.945312 191.011719 376.503906 L 200.277344 352.007812 C 126.730469 324.125 90.96875 294.644531 90.96875 261.921875 C 90.96875 225.496094 136.1875 192.703125 229.230469 161.707031 C 282.695312 143.847656 346.886719 127.964844 408.921875 112.5625 C 463.496094 99.058594 519.679688 85.085938 569.179688 69.777344 L 576.6875 94.636719 C 577.023438 95.746094 577.496094 96.792969 578.109375 97.777344 C 578.71875 98.757812 579.449219 99.644531 580.296875 100.433594 C 581.144531 101.222656 582.078125 101.890625 583.101562 102.429688 C 584.125 102.972656 585.203125 103.371094 586.332031 103.625 C 587.28125 103.835938 588.238281 103.9375 589.210938 103.941406 C 591.054688 103.9375 592.820312 103.566406 594.507812 102.816406 C 596.191406 102.070312 597.65625 101.015625 598.894531 99.648438 L 650.238281 43.214844 C 650.613281 42.796875 650.964844 42.359375 651.285156 41.894531 C 651.609375 41.433594 651.898438 40.953125 652.15625 40.453125 C 652.417969 39.953125 652.640625 39.4375 652.835938 38.90625 C 653.027344 38.378906 653.1875 37.839844 653.308594 37.289062 C 653.433594 36.738281 653.519531 36.183594 653.570312 35.621094 C 653.621094 35.0625 653.636719 34.5 653.617188 33.9375 C 653.59375 33.375 653.539062 32.816406 653.445312 32.257812 C 653.351562 31.703125 653.222656 31.15625 653.058594 30.617188 C 652.894531 30.078125 652.695312 29.554688 652.464844 29.039062 C 652.230469 28.527344 651.96875 28.03125 651.671875 27.550781 C 651.375 27.070312 651.050781 26.613281 650.695312 26.175781 C 650.339844 25.738281 649.957031 25.328125 649.546875 24.9375 C 649.140625 24.550781 648.707031 24.191406 648.253906 23.859375 C 647.796875 23.527344 647.324219 23.226562 646.828125 22.957031 C 646.335938 22.683594 645.828125 22.445312 645.300781 22.242188 C 644.777344 22.035156 644.242188 21.867188 643.695312 21.730469 Z M 595.097656 65 L 585.769531 34.054688 L 616.203125 41.75 Z M 595.097656 65 " fill-opacity="1" fill-rule="nonzero"/></g></svg>