<svg xmlns="http://www.w3.org/2000/svg" xmlns:xlink="http://www.w3.org/1999/xlink" width="1080" zoomAndPan="magnify" viewBox="0 0 810 809.999993" height="1080" preserveAspectRatio="xMidYMid meet" version="1.0"><path fill="#34930c" d="M 724.289062 309.96875 L 439.820312 396.875 C 435.652344 398.148438 431.121094 397.058594 427.992188 394.027344 C 424.859375 391 423.621094 386.507812 424.753906 382.300781 L 450.109375 288.332031 L 469.785156 300.265625 L 317.082031 440.808594 L 315.386719 421.882812 L 497.210938 537.289062 L 479.953125 552.5 L 431.878906 450.289062 C 430.023438 446.34375 430.457031 441.703125 433.011719 438.171875 C 435.566406 434.636719 439.84375 432.773438 444.167969 433.304688 L 720.304688 467.070312 C 726.871094 467.875 731.542969 473.847656 730.738281 480.414062 C 729.9375 486.980469 723.964844 491.652344 717.398438 490.847656 L 441.261719 457.082031 L 453.554688 440.09375 L 501.628906 542.300781 C 503.894531 547.125 502.707031 552.863281 498.710938 556.386719 C 494.714844 559.910156 488.871094 560.367188 484.371094 557.511719 L 302.550781 442.109375 C 299.40625 440.113281 297.371094 436.769531 297.039062 433.0625 C 296.707031 429.355469 298.117188 425.703125 300.859375 423.183594 L 453.5625 282.640625 C 457.484375 279.027344 463.324219 278.445312 467.882812 281.210938 C 472.445312 283.976562 474.625 289.421875 473.238281 294.570312 L 447.882812 388.539062 L 432.820312 373.964844 L 717.289062 287.058594 C 723.613281 285.125 730.308594 288.6875 732.242188 295.015625 C 734.175781 301.339844 730.613281 308.035156 724.289062 309.96875 Z M 724.289062 309.96875 " fill-opacity="1" fill-rule="nonzero"/><path fill="#34930c" d="M 290.566406 148.246094 C 130.363281 150.117188 2.011719 281.507812 3.882812 441.707031 C 5.753906 601.910156 137.140625 730.261719 297.34375 728.386719 C 441.792969 726.699219 560.347656 619.71875 580.894531 481.257812 L 568.746094 479.152344 L 568.746094 479.15625 L 580.894531 481.253906 C 582.0625 473.394531 582.914062 465.433594 583.433594 457.386719 L 559.71875 453.277344 L 559.703125 453.28125 C 559.257812 461.34375 558.453125 469.3125 557.300781 477.175781 L 557.328125 477.179688 L 557.316406 477.183594 C 538.675781 604.476562 429.78125 702.90625 297.0625 704.457031 C 150.078125 706.175781 29.53125 588.414062 27.8125 441.429688 C 26.097656 294.441406 143.859375 173.894531 290.847656 172.175781 C 404.105469 170.851562 501.667969 240.46875 541.261719 339.730469 L 541.261719 339.734375 L 541.25 339.734375 C 544.210938 347.121094 546.835938 354.671875 549.121094 362.371094 L 571.941406 355.167969 C 569.65625 347.476562 567.050781 339.917969 564.148438 332.511719 L 564.136719 332.515625 L 544.625 338.671875 L 544.625 338.675781 L 564.136719 332.511719 C 521.417969 223.449219 414.632812 146.796875 290.566406 148.246094 Z M 290.566406 148.246094 " fill-opacity="1" fill-rule="nonzero"/><path fill="#34930c" d="M 296.121094 244.785156 L 296.121094 244.789062 C 186.792969 246.0625 99.203125 335.726562 100.480469 445.050781 C 101.757812 554.375 191.417969 641.964844 300.746094 640.6875 C 371.1875 639.863281 432.605469 602.347656 467.042969 546.519531 L 456.898438 540.078125 L 456.898438 540.082031 L 467.042969 546.515625 C 474.496094 534.433594 480.683594 521.496094 485.425781 507.882812 L 477.492188 490.996094 L 485.433594 507.871094 C 490.046875 494.625 493.292969 480.742188 495 466.394531 L 482.933594 464.308594 L 495 466.394531 C 495.941406 458.5 496.414062 450.46875 496.398438 442.328125 L 473.316406 438.332031 L 473.304688 438.335938 C 473.324219 439.117188 473.339844 439.90625 473.347656 440.695312 C 473.363281 441.882812 473.363281 443.023438 473.355469 444.207031 C 473.351562 444.546875 473.15625 444.851562 472.855469 445 L 472.4375 445.210938 C 472.367188 450.980469 476.121094 465.398438 471.378906 462.308594 C 466.636719 459.21875 459.449219 454.507812 458.726562 458.449219 C 456.523438 470.46875 463.980469 497.882812 459.441406 508.914062 C 458.960938 510.078125 458.46875 511.234375 457.964844 512.386719 L 457.984375 512.398438 L 457.972656 512.402344 C 454.734375 519.777344 451.007812 526.886719 446.832031 533.691406 L 446.847656 533.703125 L 446.835938 533.707031 C 444.253906 537.882812 441.515625 541.949219 438.613281 545.886719 L 438.625 545.890625 C 407.335938 588.320312 357.234375 616.09375 300.464844 616.753906 C 204.355469 617.878906 125.535156 540.878906 124.410156 444.769531 C 123.289062 348.664062 200.289062 269.839844 296.398438 268.714844 C 343.191406 268.171875 385.886719 286.140625 417.511719 315.820312 L 417.511719 315.824219 L 417.503906 315.824219 C 423.339844 321.289062 428.785156 327.152344 433.816406 333.371094 L 434.46875 332.769531 C 434.472656 332.773438 434.476562 332.777344 434.476562 332.78125 L 434.464844 332.78125 L 433.808594 333.375 C 434.863281 334.667969 435.890625 335.972656 436.898438 337.292969 L 437.1875 336.214844 C 437.195312 336.222656 437.199219 336.230469 437.207031 336.238281 L 437.195312 336.242188 L 436.894531 337.304688 C 443.503906 345.957031 449.3125 355.246094 454.214844 365.066406 L 454.5625 363.785156 C 454.566406 363.796875 454.570312 363.804688 454.578125 363.816406 L 454.566406 363.820312 L 454.210938 365.082031 C 454.527344 365.695312 454.832031 366.308594 455.128906 366.921875 L 455.980469 366.652344 C 459.460938 373.824219 462.457031 381.269531 464.933594 388.945312 L 486.898438 382.011719 C 484.441406 374.34375 481.519531 366.878906 478.171875 359.652344 L 478.160156 359.65625 C 473.804688 350.21875 468.71875 341.1875 462.980469 332.628906 L 462.96875 332.632812 C 454.921875 320.613281 445.585938 309.53125 435.167969 299.578125 L 418.171875 315.210938 L 435.15625 299.578125 C 399.070312 265.097656 349.980469 244.15625 296.121094 244.785156 L 296.121094 244.789062 Z M 296.121094 244.785156 " fill-opacity="1" fill-rule="nonzero"/><path fill="#34930c" d="M 298.722656 310.21875 C 297.820312 310.230469 296.910156 310.25 296.003906 310.277344 C 224.835938 312.585938 169.011719 372.148438 171.316406 443.316406 C 173.59375 513.570312 231.675781 568.875 301.632812 568.058594 C 302.539062 568.046875 303.445312 568.027344 304.351562 567.996094 C 347.472656 566.601562 384.960938 544.183594 407.296875 510.902344 C 407.292969 510.902344 407.292969 510.898438 407.289062 510.898438 L 407.300781 510.902344 C 407.660156 510.363281 408.015625 509.824219 408.367188 509.28125 L 401.765625 505.085938 L 401.765625 505.089844 L 408.371094 509.273438 C 412.722656 502.578125 416.464844 495.457031 419.527344 487.988281 L 406.136719 479.484375 L 406.125 479.488281 C 403.242188 487.046875 399.570312 494.230469 395.207031 500.925781 L 395.222656 500.9375 L 395.210938 500.941406 C 375.671875 530.902344 342.308594 551.171875 303.847656 552.417969 C 303.050781 552.445312 302.25 552.464844 301.457031 552.472656 C 239.957031 553.191406 188.898438 504.574219 186.898438 442.808594 C 184.871094 380.246094 233.945312 327.886719 296.507812 325.855469 C 297.304688 325.832031 298.105469 325.8125 298.898438 325.804688 C 328.203125 325.460938 355.136719 336.320312 375.523438 354.464844 L 386.375 344.476562 C 392.289062 349.855469 397.691406 355.78125 402.511719 362.179688 L 403.167969 361.578125 C 398.355469 355.179688 392.949219 349.253906 387.046875 343.867188 L 386.378906 344.472656 L 386.378906 344.476562 L 387.035156 343.867188 C 363.722656 322.601562 332.617188 309.824219 298.722656 310.21875 Z M 298.722656 310.21875 " fill-opacity="1" fill-rule="nonzero"/><path fill="#34930c" d="M 302.917969 369.378906 C 282.65625 370.128906 265.875 377.308594 252.578125 390.921875 C 239.277344 404.539062 232.488281 421.480469 232.214844 441.753906 C 232.3125 448.355469 233.238281 454.683594 234.992188 460.738281 L 238.160156 469.53125 C 240.660156 475.226562 243.816406 480.480469 247.628906 485.292969 C 259.53125 500.171875 275.277344 509.046875 294.871094 511.914062 C 298.132812 512.226562 301.324219 512.367188 304.449219 512.332031 C 320.964844 512.136719 335.523438 507.039062 348.128906 497.035156 C 354.164062 492.210938 359.210938 486.75 363.273438 480.65625 L 302.550781 442.109375 L 363.273438 480.652344 C 367.699219 474.011719 370.949219 466.617188 373.023438 458.472656 L 328.558594 430.246094 L 362.0625 399.40625 C 359.632812 396.003906 356.859375 392.78125 353.746094 389.742188 C 350.996094 387.054688 348.113281 384.636719 345.09375 382.480469 L 345.082031 382.484375 C 333.152344 373.964844 319.09375 369.597656 302.917969 369.378906 Z M 302.917969 369.378906 " fill-opacity="1" fill-rule="nonzero"/><path fill="#34930c" d="M 296.390625 267.820312 L 296.390625 267.828125 C 199.785156 268.949219 122.386719 348.179688 123.515625 444.78125 C 124.644531 541.382812 203.871094 618.78125 300.476562 617.652344 C 357.152344 616.988281 415.660156 587.636719 447.152344 545.488281 C 447.242188 545.367188 442.976562 553.570312 452.03125 539.648438 C 455.679688 534.039062 442.605469 529.449219 442.605469 529.449219 C 430.628906 522.1875 430.632812 522.183594 430.632812 522.183594 L 409.574219 507.453125 C 409.523438 507.398438 407.367188 510.945312 407.308594 510.902344 L 407.296875 510.90625 C 407.222656 510.847656 407.128906 510.804688 407.03125 510.777344 C 406.941406 510.757812 406.863281 510.746094 406.785156 510.75 C 406.5 510.75 406.191406 508 406.023438 508.246094 C 383.78125 540.890625 346.824219 565.726562 304.324219 567.101562 C 303.417969 567.132812 302.523438 567.152344 301.621094 567.164062 C 232.148438 567.972656 174.472656 513.054688 172.214844 443.285156 C 169.921875 372.613281 225.359375 313.464844 296.03125 311.175781 C 296.9375 311.144531 297.832031 311.125 298.734375 311.113281 C 332.363281 310.722656 363.222656 323.386719 386.378906 344.46875 L 387.035156 343.867188 L 386.382812 344.46875 L 386.53125 344.332031 L 387.046875 343.867188 C 392.949219 349.253906 398.355469 355.179688 403.167969 361.578125 L 433.800781 333.382812 C 434.867188 334.671875 435.890625 335.976562 436.898438 337.292969 L 437.1875 336.214844 C 436.3125 335.058594 435.40625 333.914062 434.488281 332.78125 L 433.808594 333.375 L 434.46875 332.769531 C 429.449219 326.550781 424 320.6875 418.175781 315.21875 L 417.511719 315.820312 L 418.164062 315.21875 C 386.382812 285.355469 343.449219 267.273438 296.390625 267.820312 L 296.390625 267.824219 Z M 296.390625 267.820312 " fill-opacity="1" fill-rule="nonzero"/><path fill="#34930c" d="M 442.574219 433.214844 C 438.925781 433.257812 435.449219 434.96875 433.1875 437.929688 C 430.480469 441.484375 429.976562 446.246094 431.878906 450.289062 L 437.738281 462.753906 L 472.851562 445 C 473.15625 444.851562 473.351562 444.546875 473.355469 444.207031 C 473.363281 443.023438 473.363281 441.882812 473.347656 440.695312 C 473.339844 439.90625 473.324219 439.117188 473.304688 438.332031 L 444.757812 433.390625 C 444.027344 433.265625 443.296875 433.207031 442.574219 433.214844 Z M 442.574219 433.214844 " fill-opacity="1" fill-rule="nonzero"/><path fill="#34930c" d="M 436.894531 337.316406 L 424.753906 382.300781 C 423.613281 386.527344 424.871094 391.039062 428.03125 394.066406 C 430.328125 396.269531 433.367188 397.433594 436.460938 397.398438 C 437.621094 397.382812 438.785156 397.203125 439.925781 396.84375 L 464.921875 388.949219 C 462.484375 381.359375 459.535156 374.003906 456.105469 366.910156 L 456.105469 366.914062 C 456.078125 366.824219 456.035156 366.738281 455.992188 366.652344 L 455.980469 366.65625 C 455.535156 365.703125 455.066406 364.757812 454.589844 363.816406 L 454.210938 365.082031 L 454.28125 364.820312 L 454.214844 365.066406 C 449.3125 355.25 443.507812 345.964844 436.902344 337.316406 Z M 436.894531 337.316406 " fill-opacity="1" fill-rule="nonzero"/><path fill="#34930c" d="M 403.167969 361.578125 L 403.054688 361.679688 Z M 403.167969 361.578125 " fill-opacity="1" fill-rule="nonzero"/><path fill="#34930c" d="M 417.507812 315.832031 L 387.035156 343.867188 L 387.035156 343.871094 L 417.5 315.832031 Z M 417.507812 315.832031 " fill-opacity="1" fill-rule="nonzero"/><path fill="#34930c" d="M 437.1875 336.226562 L 436.898438 337.300781 L 437.195312 336.242188 Z M 437.1875 336.226562 " fill-opacity="1" fill-rule="nonzero"/><path fill="#34930c" d="M 806.707031 389.550781 C 807.316406 441.910156 774.902344 490.457031 728.050781 491.003906 C 681.199219 491.550781 647.664062 443.777344 647.050781 391.414062 C 646.441406 339.050781 678.851562 290.507812 725.707031 289.960938 C 772.558594 289.414062 806.09375 337.1875 806.707031 389.550781 M 782.777344 389.828125 C 782.246094 344.375 754.089844 313.5625 725.984375 313.890625 C 697.878906 314.21875 670.453125 345.679688 670.984375 391.136719 C 671.511719 436.589844 699.667969 467.402344 727.773438 467.074219 C 755.878906 466.746094 783.304688 435.285156 782.777344 389.828125 Z M 782.777344 389.828125 " fill-opacity="1" fill-rule="nonzero"/><path fill="#34930c" d="M 466.90625 311.703125 C 448.058594 349.601562 431.660156 383.375 435.65625 417.960938 C 439.71875 453.175781 464.953125 490.933594 492.941406 532.222656 C 496.648438 537.691406 495.21875 545.132812 489.75 548.839844 C 484.277344 552.550781 476.839844 551.121094 473.128906 545.652344 C 446.320312 506.097656 416.761719 463.015625 411.878906 420.707031 C 406.921875 377.773438 427.421875 337.347656 445.476562 301.046875 C 448.417969 295.128906 455.601562 292.714844 461.519531 295.660156 C 467.4375 298.601562 469.847656 305.785156 466.90625 311.703125 Z M 466.90625 311.703125 " fill-opacity="1" fill-rule="nonzero"/><path fill="#34930c" d="M 601.777344 333.582031 L 601.777344 333.585938 L 578.730469 329.210938 L 623.378906 219.597656 C 624.019531 218.027344 624.984375 216.609375 626.210938 215.441406 L 764.003906 84.269531 C 767.820312 80.632812 773.570312 79.925781 778.15625 82.527344 C 782.742188 85.128906 785.085938 90.425781 783.925781 95.570312 L 739.472656 292.570312 C 738.019531 299.015625 731.613281 303.0625 725.167969 301.609375 C 718.71875 300.152344 714.671875 293.75 716.128906 287.300781 L 760.582031 90.304688 L 780.503906 101.605469 L 642.710938 232.777344 L 645.542969 228.625 L 600.894531 338.238281 C 598.746094 343.511719 593.175781 346.542969 587.578125 345.480469 C 581.984375 344.417969 577.910156 339.558594 577.84375 333.863281 L 577.84375 333.859375 C 577.769531 327.253906 583.0625 321.832031 589.671875 321.757812 C 596.28125 321.679688 601.699219 326.972656 601.777344 333.582031 Z M 601.777344 333.582031 " fill-opacity="1" fill-rule="nonzero"/><path fill="#34930c" d="M 611.945312 480.472656 L 611.945312 480.476562 L 610.078125 474.054688 L 686.902344 594.886719 L 684.992188 592.578125 L 803.363281 703.617188 L 783.539062 715.144531 L 727.21875 481.203125 C 725.671875 474.777344 729.628906 468.316406 736.050781 466.769531 C 742.476562 465.222656 748.941406 469.175781 750.488281 475.601562 L 806.808594 709.542969 C 808.046875 714.6875 805.761719 720.03125 801.191406 722.691406 C 796.621094 725.347656 790.84375 724.691406 786.988281 721.074219 L 668.617188 610.035156 C 667.886719 609.347656 667.246094 608.574219 666.707031 607.726562 L 589.878906 486.894531 C 588.660156 484.976562 588.011719 482.75 588.011719 480.476562 L 588.011719 480.472656 C 588.011719 473.863281 593.371094 468.503906 599.980469 468.503906 C 606.589844 468.503906 611.945312 473.863281 611.945312 480.472656 Z M 611.945312 480.472656 " fill-opacity="1" fill-rule="nonzero"/></svg>