<svg xmlns="http://www.w3.org/2000/svg" xmlns:xlink="http://www.w3.org/1999/xlink" width="1080" zoomAndPan="magnify" viewBox="0 0 810 809.999993" height="1080" preserveAspectRatio="xMidYMid meet" version="1.0"><defs><clipPath id="49e07f50ea"><path d="M 31.386719 0 L 778.386719 0 L 778.386719 810 L 31.386719 810 Z M 31.386719 0 " clip-rule="nonzero"/></clipPath></defs><g clip-path="url(#49e07f50ea)"><path fill="#34930c" d="M 446.792969 785.421875 C 430.929688 785.421875 418 772.5 418 756.59375 C 418 740.6875 430.929688 727.746094 446.792969 727.746094 C 462.65625 727.746094 475.695312 740.6875 475.695312 756.59375 C 475.695312 772.5 462.65625 785.421875 446.792969 785.421875 Z M 633.792969 221.195312 L 631.949219 243.816406 L 624.777344 243.035156 C 601.53125 240.480469 580.40625 257.429688 577.945312 280.609375 C 576.75 291.855469 579.898438 302.9375 587.070312 311.804688 C 587.070312 311.867188 587.179688 311.957031 587.289062 312.019531 C 587.179688 312.085938 587.070312 312.128906 586.960938 312.195312 C 578.160156 319.300781 572.621094 329.40625 571.316406 340.652344 C 570.121094 351.910156 573.378906 362.984375 580.441406 371.859375 C 580.550781 371.914062 580.550781 372 580.660156 372.066406 C 580.550781 372.132812 580.441406 372.183594 580.441406 372.230469 C 561.847656 387.082031 559.121094 413.84375 574.03125 432.132812 C 573.921875 432.1875 573.8125 432.230469 573.8125 432.285156 C 564.90625 439.402344 559.363281 449.507812 558.167969 460.753906 C 557.515625 465.980469 557.949219 471.1875 559.253906 476.152344 L 552.515625 536.164062 L 531.871094 579.082031 C 528.878906 585.109375 521.425781 587.832031 515.246094 584.863281 C 510.792969 582.671875 509.597656 580.519531 509.164062 579.105469 C 507.640625 574.464844 509.921875 567.078125 513.183594 559.765625 L 524.59375 536.835938 L 525.246094 533.542969 L 530.785156 453.222656 C 531.222656 446.464844 526.113281 440.609375 519.378906 440.144531 C 512.535156 439.664062 506.773438 444.769531 506.230469 451.542969 L 500.90625 529.625 L 497.972656 535.21875 C 495.582031 539.792969 492.972656 544.726562 490.691406 549.867188 L 470.480469 590.113281 C 463.285156 604.597656 443.675781 599.949219 440.492188 589.84375 C 439.078125 585.320312 440.054688 579.238281 442.121094 572.671875 L 462.875 530.339844 L 463.851562 527.363281 L 466.460938 452.792969 C 466.675781 446.011719 461.351562 440.339844 454.617188 440.121094 C 447.878906 439.875 442.121094 445.195312 441.902344 451.964844 L 439.621094 521.886719 C 438.207031 524.644531 436.578125 527.742188 434.730469 530.96875 C 429.300781 540.976562 423.214844 552.203125 419.300781 563.601562 L 405.285156 592.371094 C 400.183594 602.753906 385.96875 605.144531 377.792969 595.808594 C 391.226562 574.359375 396.832031 545.898438 404.523438 521.898438 C 412.238281 497.753906 418.757812 367.417969 415.71875 316.652344 L 461.351562 316.652344 C 485.367188 316.652344 504.925781 297.128906 504.925781 273.144531 L 504.925781 269.855469 C 504.925781 245.863281 485.367188 226.335938 461.351562 226.335938 L 387.03125 226.335938 C 371.582031 226.335938 364.054688 232.808594 352.152344 240.777344 L 370.296875 195.316406 C 376.382812 179.875 385.730469 168.410156 399.527344 159.207031 L 431.90625 137.648438 C 446.03125 128.21875 456.464844 116.917969 464.722656 102.074219 L 490.039062 56.492188 C 556.140625 73.320312 614.859375 108.328125 661.5 159.335938 C 644.988281 176.753906 635.859375 197.007812 633.792969 221.195312 Z M 664 277.347656 C 660.957031 273.578125 656.71875 271.242188 651.9375 270.722656 L 622.167969 267.429688 C 617.296875 266.917969 612.816406 268.230469 609.019531 271.285156 C 596.304688 281.507812 602.71875 301.367188 618.144531 303.082031 L 648.023438 306.371094 C 657.910156 307.457031 666.714844 300.339844 667.800781 290.496094 C 668.347656 285.769531 667.042969 281.109375 664 277.347656 Z M 648.027344 470.652344 C 649.113281 460.820312 641.945312 451.953125 632.164062 450.851562 L 602.285156 447.582031 C 597.660156 447.019531 592.855469 448.4375 589.136719 451.4375 C 576.496094 461.644531 582.894531 481.53125 598.371094 483.210938 L 628.253906 486.503906 C 638.03125 487.582031 646.941406 480.484375 648.027344 470.652344 Z M 600.328125 556.371094 C 604.78125 547.242188 606.957031 539.0625 607.824219 528.980469 L 609.5625 509.136719 C 599.589844 508.046875 589.96875 507.839844 580.875 503.183594 L 576.636719 540.972656 C 576.496094 543.550781 573.957031 549.355469 573.054688 551.613281 C 563.492188 575.519531 564.578125 580.886719 572.835938 584.863281 C 579.03125 587.839844 586.417969 585.234375 589.351562 579.082031 Z M 654.65625 410.59375 C 655.742188 400.773438 648.570312 391.894531 638.792969 390.820312 L 608.910156 387.527344 C 604.222656 386.996094 599.558594 388.375 595.765625 391.394531 C 583.277344 401.328125 589.21875 421.449219 605 423.175781 L 634.882812 426.457031 C 644.613281 427.539062 653.527344 420.390625 654.65625 410.59375 Z M 661.28125 350.550781 C 662.199219 340.582031 655.078125 331.824219 645.417969 330.765625 L 615.539062 327.484375 C 610.875 326.914062 606.160156 328.347656 602.390625 331.339844 C 589.921875 341.242188 595.800781 361.394531 611.625 363.136719 L 641.398438 366.429688 C 651.230469 367.484375 660.152344 360.394531 661.28125 350.550781 Z M 337.375 597.945312 C 345.417969 593.664062 352.480469 589.945312 356.5 583.578125 C 368.46875 564.898438 373.804688 536.910156 381.054688 514.394531 C 388.769531 490.695312 395.507812 335.351562 390.074219 306.621094 C 388.695312 299.179688 394.5625 292.105469 402.136719 292.105469 L 461.351562 292.105469 C 471.894531 292.105469 480.367188 283.597656 480.367188 273.140625 L 480.367188 269.851562 C 480.367188 259.398438 471.894531 250.867188 461.351562 250.867188 L 387.03125 250.867188 C 383.011719 250.867188 379.859375 251.835938 376.492188 254.0625 L 289.457031 312.085938 C 272.941406 323.113281 262.402344 337.78125 257.292969 356.996094 L 238.605469 426.949219 C 234.367188 442.738281 227.414062 455.808594 216.65625 468.117188 L 113.429688 586.035156 C 137.769531 623.152344 169.171875 655.652344 206.332031 681.394531 C 222.609375 692.726562 235.328125 699.847656 252.945312 708.675781 L 308.796875 620.871094 C 316.40625 608.996094 327.488281 603.117188 337.375 597.945312 Z M 291.957031 24.578125 C 307.820312 24.578125 320.75 37.519531 320.75 53.425781 C 320.75 69.332031 307.820312 82.265625 291.957031 82.265625 C 275.984375 82.265625 263.054688 69.332031 263.054688 53.425781 C 263.054688 37.519531 275.984375 24.578125 291.957031 24.578125 Z M 694.96875 159.714844 C 685.574219 148.070312 676.332031 138.273438 665.738281 127.78125 L 661.175781 123.378906 C 621.515625 85.992188 574.03125 57.554688 522.417969 40.410156 C 522.308594 40.375 522.203125 40.332031 522.203125 40.300781 C 509.894531 36.378906 499.136719 33.222656 486.453125 30.402344 C 481.128906 29.242188 475.695312 31.683594 473.085938 36.433594 L 443.207031 90.144531 C 436.902344 101.597656 429.1875 109.960938 418.214844 117.234375 L 385.941406 138.789062 C 368.011719 150.71875 355.410156 166.226562 347.476562 186.207031 L 316.183594 264.777344 L 275.761719 291.660156 C 254.355469 305.949219 240.125 325.800781 233.496094 350.671875 L 214.914062 420.617188 C 211.65625 432.808594 206.4375 442.457031 198.179688 451.953125 L 100.171875 564.011719 C 71.921875 513.171875 56.167969 455.136719 56.167969 394.734375 C 56.167969 262.867188 130.816406 142.449219 247.730469 83.375 C 257.402344 97.511719 273.589844 106.800781 291.953125 106.800781 C 321.402344 106.800781 345.304688 82.863281 345.304688 53.425781 C 345.304688 23.992188 321.402344 0.0351562 291.953125 0.0351562 C 259.238281 0.0351562 234.59375 29.507812 239.039062 60.304688 C 112.5625 123.109375 31.613281 252.703125 31.613281 394.730469 C 31.613281 542.058594 118.515625 675.609375 252.515625 735.546875 C 257.984375 737.996094 264.535156 736.15625 267.835938 730.9375 L 329.550781 634.058594 C 335.429688 624.769531 349.480469 620.027344 360.410156 613.078125 C 377.980469 632.175781 408.691406 629.976562 423.648438 609.199219 C 441.273438 630.136719 477.886719 629.699219 492.429688 600.984375 L 493.410156 599.136719 C 508.980469 614.820312 534.847656 614.605469 549.152344 597.179688 C 566.566406 617.347656 599.449219 614.5625 611.519531 589.75 L 622.496094 567.019531 C 632.164062 546.902344 632.175781 532.195312 634.011719 510.996094 C 667.519531 507.996094 684.789062 468.386719 663.132812 441.921875 C 671.714844 435.109375 677.691406 425.015625 678.996094 413.28125 C 680.300781 401.535156 676.714844 390.375 669.761719 381.84375 C 669.761719 381.800781 669.871094 381.757812 669.976562 381.703125 C 678.777344 374.585938 684.429688 364.472656 685.625 353.234375 C 687.6875 333.832031 676.386719 322.269531 676.386719 321.832031 C 705.542969 298.695312 692.769531 251.96875 656.285156 246.53125 L 658.351562 223.269531 C 659.765625 205.761719 666.066406 190.953125 677.582031 178.152344 C 725.394531 238.414062 753.644531 314.234375 753.644531 394.730469 C 753.644531 554.523438 647.484375 691.648438 494.167969 731.9375 C 485.261719 714.878906 467.332031 703.199219 446.792969 703.199219 C 417.347656 703.199219 393.445312 727.15625 393.445312 756.589844 C 393.445312 786.023438 417.347656 809.964844 446.792969 809.964844 C 476.367188 809.964844 500.144531 786.285156 500.144531 755.710938 C 663.636719 712.585938 778.203125 564.207031 778.203125 394.726562 C 778.199219 309.347656 748.644531 225.890625 694.96875 159.714844 Z M 694.96875 159.714844 " fill-opacity="1" fill-rule="evenodd"/></g></svg>