<svg xmlns="http://www.w3.org/2000/svg" xmlns:xlink="http://www.w3.org/1999/xlink" width="1080" zoomAndPan="magnify" viewBox="0 0 810 809.999993" height="1080" preserveAspectRatio="xMidYMid meet" version="1.0"><defs><clipPath id="40def61641"><path d="M 0 1.011719 L 808 1.011719 L 808 808.761719 L 0 808.761719 Z M 0 1.011719 " clip-rule="nonzero"/></clipPath></defs><g clip-path="url(#40def61641)"><path fill="#34930c" d="M 806.109375 354.945312 C 802.214844 342.964844 791.152344 334.929688 778.5625 334.929688 C 778.542969 334.929688 778.523438 334.929688 778.5 334.929688 L 717.289062 335.042969 C 717.285156 335.042969 717.28125 335.042969 717.277344 335.042969 C 715.886719 335.042969 714.929688 334.34375 714.503906 333.023438 L 695.699219 274.769531 C 695.699219 274.769531 695.699219 274.769531 695.699219 274.765625 C 691.820312 262.765625 680.742188 254.699219 668.125 254.699219 C 663.253906 254.699219 658.617188 255.914062 654.527344 258.085938 C 632.855469 224.882812 604.566406 196.050781 571.75 173.734375 L 571.75 148.222656 C 571.75 142.835938 568.433594 138.003906 563.40625 136.066406 L 543.949219 128.578125 C 540.953125 118.226562 536.824219 108.257812 531.609375 98.808594 L 540.074219 79.742188 C 542.261719 74.820312 541.191406 69.054688 537.378906 65.246094 L 507.726562 35.589844 C 503.917969 31.78125 498.15625 30.710938 493.230469 32.898438 L 474.15625 41.367188 C 464.707031 36.15625 454.742188 32.023438 444.398438 29.03125 L 436.90625 9.566406 C 434.96875 4.539062 430.136719 1.21875 424.75 1.21875 L 382.808594 1.21875 C 377.421875 1.21875 372.589844 4.539062 370.65625 9.566406 L 363.160156 29.03125 C 352.816406 32.023438 342.847656 36.15625 333.402344 41.367188 L 314.328125 32.898438 C 309.402344 30.707031 303.640625 31.78125 299.832031 35.589844 L 270.171875 65.246094 C 266.363281 69.058594 265.292969 74.820312 267.480469 79.742188 L 275.953125 98.8125 C 270.738281 108.261719 266.605469 118.226562 263.613281 128.578125 L 244.152344 136.070312 C 239.125 138.003906 235.804688 142.835938 235.804688 148.226562 L 235.804688 173.707031 C 211.179688 190.4375 189.332031 210.605469 170.671875 233.792969 C 155.753906 227.277344 139.300781 223.636719 122.007812 223.636719 C 54.734375 223.636719 0 278.375 0 345.648438 C 0 377.3125 9.964844 394.34375 19.605469 410.816406 C 30.25 429.003906 41.253906 447.820312 43.910156 492.226562 L 43.910156 509.488281 C 43.910156 521.773438 51.175781 532.371094 61.621094 537.285156 L 61.621094 544.90625 C 61.621094 557.371094 69.089844 568.105469 79.78125 572.921875 L 79.78125 580.328125 C 79.78125 597.273438 93.570312 611.0625 110.515625 611.0625 L 133.5 611.0625 C 145.042969 611.0625 155.113281 604.65625 160.363281 595.222656 C 190.492188 637.359375 231.050781 671.050781 278.171875 692.855469 C 252.503906 719.671875 235.308594 754.839844 231.082031 794.363281 C 230.6875 798.039062 231.871094 801.707031 234.34375 804.453125 C 236.816406 807.203125 240.335938 808.773438 244.03125 808.773438 L 563.527344 808.773438 C 567.222656 808.773438 570.742188 807.203125 573.214844 804.453125 C 575.683594 801.707031 576.871094 798.035156 576.476562 794.363281 C 572.246094 754.828125 555.042969 719.652344 529.363281 692.835938 C 568.761719 674.570312 604.046875 647.738281 632.265625 614.382812 C 660.933594 580.492188 681.699219 540.5625 692.992188 497.921875 L 719.304688 517.117188 C 729.492188 524.546875 743.199219 524.558594 753.402344 517.148438 C 763.609375 509.730469 767.832031 496.695312 763.910156 484.703125 L 744.882812 426.523438 C 744.449219 425.199219 744.816406 424.066406 745.945312 423.25 L 795.535156 387.367188 C 805.761719 379.972656 810.007812 366.945312 806.109375 354.945312 Z M 261.855469 157.167969 L 279.183594 150.496094 C 283.195312 148.953125 286.183594 145.535156 287.175781 141.355469 C 290.113281 129.019531 294.984375 117.273438 301.652344 106.445312 C 303.902344 102.789062 304.207031 98.253906 302.464844 94.328125 L 294.917969 77.34375 L 311.925781 60.335938 L 328.917969 67.882812 C 332.839844 69.621094 337.375 69.320312 341.03125 67.070312 C 351.863281 60.398438 363.605469 55.53125 375.9375 52.597656 C 380.117188 51.601562 383.539062 48.613281 385.078125 44.601562 L 391.75 27.269531 L 415.804688 27.269531 L 422.476562 44.601562 C 424.019531 48.613281 427.4375 51.601562 431.617188 52.597656 C 443.949219 55.53125 455.695312 60.398438 466.523438 67.070312 C 470.179688 69.320312 474.71875 69.621094 478.640625 67.882812 L 495.628906 60.335938 L 512.636719 77.34375 L 505.09375 94.324219 C 503.347656 98.25 503.652344 102.785156 505.90625 106.441406 C 512.578125 117.265625 517.445312 129.015625 520.386719 141.355469 C 521.378906 145.535156 524.367188 148.957031 528.375 150.496094 L 545.699219 157.167969 L 545.699219 181.21875 L 528.371094 187.890625 C 524.363281 189.433594 521.371094 192.851562 520.378906 197.03125 C 517.441406 209.363281 512.574219 221.109375 505.902344 231.9375 C 503.652344 235.597656 503.347656 240.128906 505.089844 244.054688 L 512.636719 261.042969 L 495.628906 278.050781 L 478.648438 270.507812 C 474.726562 268.765625 470.191406 269.070312 466.53125 271.320312 C 455.707031 277.992188 443.957031 282.859375 431.617188 285.800781 C 427.4375 286.792969 424.015625 289.78125 422.476562 293.789062 L 415.804688 311.117188 L 391.753906 311.117188 L 385.082031 293.785156 C 383.539062 289.777344 380.117188 286.785156 375.941406 285.792969 C 363.605469 282.855469 351.859375 277.984375 341.035156 271.320312 C 337.375 269.0625 332.839844 268.761719 328.917969 270.503906 L 311.925781 278.050781 L 294.917969 261.042969 L 302.464844 244.0625 C 304.207031 240.136719 303.902344 235.605469 301.648438 231.945312 C 294.980469 221.121094 290.113281 209.371094 287.171875 197.03125 C 286.179688 192.851562 283.191406 189.429688 279.183594 187.890625 L 261.855469 181.21875 Z M 26.050781 345.648438 C 26.050781 292.738281 69.097656 249.6875 122.007812 249.6875 C 174.921875 249.6875 217.96875 292.734375 217.96875 345.648438 C 217.96875 370.25 210.890625 382.34375 201.929688 397.65625 C 191.785156 414.996094 179.367188 436.21875 175.054688 478.75 L 153.855469 478.75 L 153.855469 384.800781 L 166.15625 384.800781 C 187.300781 384.800781 204.507812 367.597656 204.507812 346.449219 C 204.507812 325.300781 187.304688 308.097656 166.15625 308.097656 C 145.007812 308.097656 127.804688 325.300781 127.804688 346.449219 L 127.804688 358.75 L 116.214844 358.75 L 116.214844 346.449219 C 116.214844 325.304688 99.011719 308.097656 77.863281 308.097656 C 56.714844 308.097656 39.511719 325.300781 39.511719 346.449219 C 39.511719 367.597656 56.714844 384.800781 77.863281 384.800781 L 90.164062 384.800781 L 90.164062 478.75 L 68.960938 478.75 C 64.648438 436.21875 52.230469 414.996094 42.085938 397.65625 C 33.128906 382.34375 26.050781 370.25 26.050781 345.648438 Z M 92.355469 549.59375 C 89.816406 549.59375 87.671875 547.449219 87.671875 544.90625 L 87.671875 540.222656 L 156.347656 540.222656 L 156.347656 544.90625 C 156.347656 547.449219 154.203125 549.59375 151.664062 549.59375 Z M 174.054688 509.488281 C 174.054688 512.027344 171.914062 514.171875 169.371094 514.171875 L 74.644531 514.171875 C 72.105469 514.171875 69.960938 512.027344 69.960938 509.488281 L 69.960938 504.800781 L 174.058594 504.800781 L 174.058594 509.488281 Z M 90.164062 358.75 L 77.863281 358.75 C 71.078125 358.75 65.5625 353.230469 65.5625 346.449219 C 65.5625 339.667969 71.078125 334.148438 77.863281 334.148438 C 84.644531 334.148438 90.164062 339.667969 90.164062 346.449219 Z M 127.800781 478.75 L 116.214844 478.75 L 116.214844 384.800781 L 127.800781 384.800781 Z M 153.851562 358.75 L 153.851562 346.449219 C 153.851562 339.667969 159.371094 334.148438 166.152344 334.148438 C 172.9375 334.148438 178.457031 339.667969 178.457031 346.449219 C 178.457031 353.230469 172.9375 358.75 166.152344 358.75 Z M 133.5 585.011719 L 110.515625 585.011719 C 107.976562 585.011719 105.832031 582.867188 105.832031 580.328125 L 105.832031 575.640625 L 138.183594 575.640625 L 138.183594 580.328125 C 138.183594 582.867188 136.039062 585.011719 133.5 585.011719 Z M 259.238281 782.726562 C 273.285156 714.90625 333.050781 665.394531 403.78125 665.394531 C 474.507812 665.394531 534.273438 714.90625 548.320312 782.726562 Z M 335.566406 571.132812 C 335.566406 533.519531 366.167969 502.917969 403.777344 502.917969 C 441.390625 502.917969 471.992188 533.519531 471.992188 571.132812 C 471.992188 608.742188 441.390625 639.34375 403.777344 639.34375 C 366.167969 639.34375 335.566406 608.746094 335.566406 571.132812 Z M 507.886719 673.824219 C 492.984375 662.6875 476.238281 653.921875 458.21875 648.011719 C 482.292969 630.917969 498.042969 602.835938 498.042969 571.132812 C 498.042969 519.152344 455.753906 476.867188 403.78125 476.867188 C 351.804688 476.867188 309.519531 519.15625 309.519531 571.132812 C 309.519531 602.835938 325.269531 630.917969 349.339844 648.011719 C 331.320312 653.921875 314.570312 662.691406 299.664062 673.828125 C 247.324219 652.234375 203.054688 614.90625 172.839844 567.121094 C 178.710938 561.519531 182.394531 553.640625 182.394531 544.90625 L 182.394531 537.285156 C 192.84375 532.371094 200.105469 521.773438 200.105469 509.484375 L 200.105469 492.203125 C 202.765625 447.816406 213.769531 429.003906 224.410156 410.816406 C 234.050781 394.34375 244.015625 377.3125 244.015625 345.648438 C 244.015625 305.097656 224.113281 269.125 193.578125 246.925781 C 207.832031 229.742188 224.046875 214.445312 242.007812 201.234375 C 242.683594 201.652344 243.390625 202.03125 244.148438 202.320312 L 263.605469 209.8125 C 266.601562 220.164062 270.734375 230.132812 275.945312 239.582031 L 267.480469 258.648438 C 265.292969 263.570312 266.363281 269.332031 270.171875 273.144531 L 299.828125 302.800781 C 303.640625 306.609375 309.402344 307.679688 314.324219 305.492188 L 333.402344 297.019531 C 342.847656 302.234375 352.8125 306.367188 363.160156 309.359375 L 370.652344 328.824219 C 372.585938 333.851562 377.417969 337.167969 382.808594 337.167969 L 424.746094 337.167969 C 430.136719 337.167969 434.96875 333.851562 436.902344 328.824219 L 444.394531 309.367188 C 454.746094 306.371094 464.714844 302.242188 474.164062 297.027344 L 493.230469 305.492188 C 498.148438 307.679688 503.914062 306.613281 507.726562 302.800781 L 537.382812 273.144531 C 541.191406 269.332031 542.261719 263.570312 540.074219 258.648438 L 531.605469 239.574219 C 536.816406 230.125 540.949219 220.160156 543.941406 209.8125 L 563.40625 202.320312 C 564.164062 202.03125 564.867188 201.652344 565.542969 201.234375 C 594.832031 222.824219 619.742188 250.25 638.398438 281.46875 L 621.757812 333.023438 C 621.328125 334.347656 620.367188 335.046875 618.976562 335.046875 C 618.976562 335.046875 618.972656 335.046875 618.96875 335.046875 L 557.757812 334.933594 C 557.738281 334.933594 557.71875 334.933594 557.699219 334.933594 C 545.109375 334.933594 534.042969 342.96875 530.148438 354.949219 C 526.246094 366.949219 530.496094 379.976562 540.71875 387.371094 L 590.308594 423.257812 C 591.4375 424.074219 591.804688 425.207031 591.371094 426.53125 L 572.34375 484.710938 C 568.421875 496.703125 572.644531 509.742188 582.851562 517.15625 C 587.949219 520.855469 593.914062 522.707031 599.878906 522.707031 C 605.863281 522.707031 611.851562 520.84375 616.953125 517.121094 L 666.402344 481.046875 C 667.53125 480.226562 668.722656 480.226562 669.847656 481.046875 L 670.246094 481.335938 C 650.886719 567.378906 589.59375 640.066406 507.886719 673.824219 Z M 780.269531 366.265625 L 730.675781 402.152344 C 720.4375 409.5625 716.199219 422.613281 720.128906 434.625 L 739.15625 492.804688 C 739.585938 494.125 739.222656 495.257812 738.097656 496.074219 C 736.96875 496.890625 735.777344 496.890625 734.660156 496.070312 L 685.207031 459.996094 C 674.996094 452.546875 661.277344 452.546875 651.058594 459.996094 L 601.609375 496.070312 C 600.480469 496.890625 599.292969 496.890625 598.167969 496.078125 C 597.042969 495.257812 596.675781 494.125 597.109375 492.804688 L 616.136719 434.625 C 620.066406 422.613281 615.828125 409.5625 605.585938 402.148438 L 555.992188 366.265625 C 554.867188 365.449219 554.5 364.320312 554.929688 362.996094 C 555.359375 361.675781 556.320312 360.980469 557.703125 360.980469 C 557.707031 360.980469 557.710938 360.980469 557.714844 360.980469 L 618.925781 361.09375 C 618.945312 361.09375 618.964844 361.09375 618.984375 361.09375 C 631.601562 361.09375 642.675781 353.035156 646.554688 341.023438 L 665.355469 282.773438 C 665.785156 281.449219 666.746094 280.75 668.136719 280.75 C 669.527344 280.75 670.488281 281.449219 670.917969 282.769531 L 689.71875 341.023438 C 693.597656 353.035156 704.671875 361.09375 717.289062 361.09375 C 717.308594 361.09375 717.328125 361.09375 717.347656 361.09375 L 778.5625 360.980469 C 778.5625 360.980469 778.566406 360.980469 778.570312 360.980469 C 779.957031 360.980469 780.914062 361.675781 781.34375 362.992188 C 781.765625 364.316406 781.398438 365.449219 780.269531 366.265625 Z M 403.777344 266.546875 C 457.460938 266.546875 501.132812 222.875 501.132812 169.195312 C 501.132812 115.511719 457.460938 71.839844 403.777344 71.839844 C 350.097656 71.839844 306.425781 115.511719 306.425781 169.195312 C 306.425781 222.875 350.097656 266.546875 403.777344 266.546875 Z M 403.777344 97.890625 C 443.09375 97.890625 475.082031 129.875 475.082031 169.195312 C 475.082031 208.511719 443.09375 240.496094 403.777344 240.496094 C 364.460938 240.496094 332.472656 208.511719 332.472656 169.195312 C 332.472656 129.875 364.460938 97.890625 403.777344 97.890625 Z M 354.921875 180.765625 C 349.835938 175.679688 349.835938 167.433594 354.921875 162.34375 C 360.007812 157.257812 368.257812 157.257812 373.339844 162.34375 L 387.691406 176.695312 L 434.671875 134.0625 C 439.996094 129.226562 448.234375 129.625 453.070312 134.953125 C 457.90625 140.28125 457.507812 148.519531 452.175781 153.351562 L 396.011719 204.324219 C 393.523438 206.582031 390.390625 207.703125 387.257812 207.703125 C 383.917969 207.703125 380.585938 206.425781 378.050781 203.890625 Z M 354.921875 180.765625 " fill-opacity="1" fill-rule="nonzero"/></g></svg>